<svg width="32" height="32" viewBox="0 0 32 32" fill="none" xmlns="http://www.w3.org/2000/svg">
<g id="Frame">
<path id="Vector" d="M28.0762 14.4688H3.57848C3.0134 14.4688 2.55957 13.9895 2.55957 13.4026C2.55957 12.8158 3.0134 12.3334 3.57848 12.3334H28.0821C28.6413 12.3334 29.101 12.8096 29.101 13.4026C29.0951 13.9895 28.6413 14.4688 28.0762 14.4688Z" fill="white"/>
<path id="Vector_2" d="M11.6514 10.5936H7.15368C6.58859 10.5936 6.13477 10.1143 6.13477 9.52739C6.13477 8.94052 6.58859 8.45813 7.15368 8.45813H11.6573C12.2165 8.45813 12.6762 8.93438 12.6762 9.52739C12.6703 10.1143 12.2165 10.5936 11.6514 10.5936Z" fill="white"/>
<path id="Vector_3" d="M17.5521 21.9704C17.5521 25.2023 20.1724 27.8195 23.4012 27.8195C26.6301 27.8195 29.2503 25.2023 29.2503 21.9704C29.2503 18.7386 26.6331 16.1214 23.4012 16.1214C20.1694 16.1214 17.5521 18.7386 17.5521 21.9704ZM27.9125 21.9734C27.9125 24.4643 25.8921 26.4846 23.4012 26.4846C20.9075 26.4846 18.89 24.4615 18.89 21.9704C18.89 19.4795 20.9103 17.4592 23.4012 17.4592C25.892 17.4592 27.9125 19.4823 27.9125 21.9734Z" fill="#1EB576" stroke="#1EB576" stroke-width="0.3"/>
<path id="Vector_4" d="M22.7607 19.4556V19.4555C22.7607 19.1015 23.0488 18.8174 23.3988 18.8174C23.7527 18.8174 24.0369 19.1054 24.0369 19.4555V22.4792L25.192 21.324C25.4403 21.0758 25.8448 21.0758 26.0931 21.324C26.3413 21.5722 26.3413 21.9768 26.0931 22.225L23.8535 24.4646C23.6053 24.7128 23.2007 24.7128 22.9525 24.4646L20.7129 22.225C20.4647 21.9768 20.4647 21.5722 20.7129 21.324C20.9612 21.0758 21.3657 21.0758 21.6139 21.324L22.7632 22.4733L22.7607 19.4556Z" fill="#1EB576" stroke="#1EB576" stroke-width="0.3"/>
<path id="Vector 21" d="M16.2695 26.2036H6.4834C4.82654 26.2036 3.4834 24.8604 3.4834 23.2036V8.65222C3.4834 6.99537 4.82654 5.65222 6.4834 5.65222H25.4278C27.0847 5.65222 28.4278 6.99537 28.4278 8.65222V15.0651" stroke="white" stroke-width="2" stroke-linecap="round"/>
</g>
</svg>
