<svg width="32" height="32" viewBox="0 0 32 32" fill="none" xmlns="http://www.w3.org/2000/svg">
<g id="Frame">
<path id="Vector" d="M28.0762 12.4405H3.57848C3.0134 12.4405 2.55957 11.9612 2.55957 11.3743C2.55957 10.7874 3.0134 10.3051 3.57848 10.3051H28.0821C28.6413 10.3051 29.101 10.7813 29.101 11.3743C29.0951 11.9612 28.6413 12.4405 28.0762 12.4405Z" fill="white"/>
<path id="Vector_2" d="M17.5521 21.9704C17.5521 25.2023 20.1724 27.8195 23.4012 27.8195C26.6301 27.8195 29.2503 25.2023 29.2503 21.9704C29.2503 18.7386 26.6331 16.1214 23.4012 16.1214C20.1694 16.1214 17.5521 18.7386 17.5521 21.9704ZM27.9125 21.9734C27.9125 24.4643 25.8921 26.4846 23.4012 26.4846C20.9075 26.4846 18.89 24.4615 18.89 21.9704C18.89 19.4795 20.9103 17.4592 23.4012 17.4592C25.892 17.4592 27.9125 19.4823 27.9125 21.9734Z" fill="#1EB576" stroke="#1EB576" stroke-width="0.3"/>
<path id="Vector_3" d="M22.7607 24.0126V24.0127C22.7607 24.3666 23.0488 24.6508 23.3988 24.6508C23.7527 24.6508 24.0369 24.3627 24.0369 24.0127V20.989L25.192 22.1441C25.4403 22.3924 25.8448 22.3924 26.0931 22.1441C26.3413 21.8959 26.3413 21.4914 26.0931 21.2431L23.8535 19.0036C23.6053 18.7553 23.2007 18.7553 22.9525 19.0036L20.7129 21.2431C20.4647 21.4914 20.4647 21.8959 20.7129 22.1441C20.9612 22.3924 21.3657 22.3924 21.6139 22.1441L22.7632 20.9949L22.7607 24.0126Z" fill="#1EB576" stroke="#1EB576" stroke-width="0.3"/>
<path id="Vector 21" d="M16.2695 26.2036H6.4834C4.82654 26.2036 3.4834 24.8604 3.4834 23.2036V8.65222C3.4834 6.99537 4.82654 5.65222 6.4834 5.65222H25.4278C27.0847 5.65222 28.4278 6.99537 28.4278 8.65222V15.0651" stroke="white" stroke-width="2" stroke-linecap="round"/>
</g>
</svg>
