<svg width="32" height="32" viewBox="0 0 32 32" fill="none" xmlns="http://www.w3.org/2000/svg">
<g id="Frame">
<path id="Vector" d="M4.93572 17.1941C5.48451 17.1941 5.8988 17.6283 5.9503 18.201L5.95491 18.3255C5.97834 18.3435 5.99717 18.3669 6.00986 18.3936C6.02255 18.4203 6.02874 18.4496 6.02793 18.4792C6.78732 22.8642 11.243 26.3268 15.9992 26.3268C20.7416 26.3268 25.1404 22.878 25.9014 18.4846C25.9194 18.3783 25.97 18.2803 26.0461 18.204C26.1223 18.1277 26.2202 18.077 26.3264 18.0588L26.4079 18.0511H27.5631C27.8813 18.0511 28.0889 18.3355 28.0397 18.6452C27.1881 24.1754 21.8116 28.5028 15.9301 28.5028C12.1338 28.5028 8.35685 26.6742 5.95491 23.7496V25.2046C5.95491 25.7565 5.56368 26.1639 5.00259 26.2146L4.93572 26.2161L4.90113 26.2192L4.82196 26.2138C4.29546 26.1677 3.8535 25.8149 3.7874 25.3115L3.78125 25.2046V18.3047C3.78125 17.7513 4.23012 17.2648 4.79429 17.2002L4.90113 17.1956L4.93572 17.1941ZM16.0561 3.49725C19.8677 3.49725 23.6447 5.33887 26.0428 8.27654V6.64245C26.0428 6.07828 26.4425 5.5756 26.9705 5.50412L27.0712 5.4949H27.1004L27.1942 5.50258C27.7422 5.57099 28.2157 6.08289 28.218 6.64014V13.54C28.218 14.1257 27.6984 14.517 27.0735 14.517H27.0143C26.4486 14.517 25.9921 14.135 25.9352 13.5985C25.9221 13.5827 25.9124 13.5644 25.9068 13.5447L25.8622 13.2987C24.9944 9.00672 20.6632 5.67091 16.0008 5.67091C11.2569 5.67091 6.85573 9.12125 6.09633 13.5124C6.07731 13.6331 6.01585 13.7431 5.92301 13.8225C5.83016 13.902 5.71202 13.9457 5.58981 13.9459H4.43535C4.11637 13.9459 3.90269 13.6623 3.95112 13.3517C4.80582 7.82305 10.1792 3.49725 16.0561 3.49725Z" fill="white"/>
<g id="Vector_2">
<path d="M14.2322 17.48V15.6492C14.2325 15.5805 14.2141 15.5138 14.1789 15.4548C14.1437 15.3959 14.0931 15.3476 14.0326 15.3153C13.972 15.283 13.9038 15.2677 13.8352 15.2713C13.7666 15.2749 13.7003 15.2971 13.6434 15.3356L10.4498 18.0934C10.4118 18.1335 10.3831 18.1815 10.3656 18.234C10.3481 18.2864 10.3423 18.3421 10.3486 18.397C10.3549 18.4519 10.3731 18.5048 10.402 18.552C10.4309 18.5991 10.4698 18.6393 10.5159 18.6698L13.6219 21.3562C13.8955 21.5429 14.2322 21.3615 14.2322 21.0587V19.656H21.136C21.4195 19.6484 21.6889 19.5305 21.8868 19.3273C22.0847 19.1241 22.1954 18.8516 22.1954 18.568C22.1954 18.2843 22.0847 18.0119 21.8868 17.8087C21.6889 17.6055 21.4195 17.4875 21.136 17.48H14.2322Z" fill="#1EB576"/>
<path d="M18.8608 10.1612L18.8301 10.1489C18.5887 10.0713 18.3382 10.2519 18.3382 10.5102V12.0559H11.4321L11.3268 12.0612C10.7665 12.1212 10.3438 12.5877 10.3438 13.1435C10.344 13.432 10.4587 13.7086 10.6628 13.9125C10.8669 14.1165 11.1436 14.231 11.4321 14.231H18.3359V15.9197L18.3436 15.9935C18.4204 16.2687 18.7094 16.3801 18.9246 16.2348L22.1083 13.4832C22.2758 13.2895 22.2428 13.0289 22.0568 12.9013L18.9485 10.2127L18.8608 10.1612Z" fill="#1EB576"/>
</g>
</g>
</svg>
