<svg width="32" height="32" viewBox="0 0 32 32" fill="none" xmlns="http://www.w3.org/2000/svg">
<g id="Frame">
<path id="Vector" d="M7.02979 27.2315H10.724C11.37 27.2315 11.9001 26.7014 11.9001 26.0554C11.9001 25.4093 11.37 24.8792 10.724 24.8792H7.02979C5.95302 24.8792 5.07503 24.0012 5.07503 22.9244V19.661C5.07503 19.048 4.54493 18.5179 3.91543 18.5179C3.26936 18.5179 2.73926 19.0481 2.73926 19.6941V22.9576C2.73926 25.3099 4.66089 27.2315 7.02979 27.2315ZM24.9705 27.2647H21.2763C20.6303 27.2647 20.1002 26.7346 20.1002 26.0885C20.1002 25.4424 20.6303 24.9123 21.2763 24.9123H24.9705C26.0473 24.9123 26.9253 24.0343 26.9253 22.9576V19.6941C26.9253 19.0812 27.4554 18.5511 28.0849 18.5511C28.7309 18.5511 29.261 19.0812 29.261 19.7272V22.9741C29.2445 25.343 27.3229 27.2647 24.9705 27.2647ZM24.9705 4.76836H21.2763C20.6303 4.76836 20.1002 5.29847 20.1002 5.94453C20.1002 6.5906 20.6303 7.1207 21.2763 7.1207H24.9705C26.0473 7.1207 26.9253 7.99869 26.9253 9.07546V12.3389C26.9253 12.9518 27.4554 13.482 28.0849 13.482C28.7309 13.482 29.261 12.9518 29.261 12.3058V9.05889C29.2445 6.68999 27.3229 4.76836 24.9705 4.76836ZM7.02979 4.73523H10.724C11.37 4.73523 11.9001 5.26533 11.9001 5.9114C11.9001 6.55746 11.37 7.08757 10.724 7.08757H7.02979C5.95302 7.08757 5.07503 7.96555 5.07503 9.04233V12.3058C5.07503 12.9187 4.54493 13.4488 3.91543 13.4488C3.26936 13.4488 2.73926 12.9187 2.73926 12.2727V9.02576C2.73926 6.65686 4.66089 4.73523 7.02979 4.73523Z" fill="white"/>
<path id="Vector_2" d="M21.5254 16.8615C21.4426 16.8283 20.4487 16.3976 19.1731 16.0497C18.9246 15.9835 18.6927 15.9172 18.4442 15.8675C18.9246 15.2877 19.1897 14.5919 19.1897 13.8465V11.6929C19.1897 9.90383 17.6988 8.44604 15.86 8.44604C14.0212 8.44604 12.5302 9.90383 12.5302 11.6929V13.8465C12.5302 14.6085 12.8119 15.3374 13.3088 15.9172C13.0769 15.9835 12.8284 16.0497 12.5799 16.116C11.8676 16.3313 11.1553 16.5798 10.4761 16.8615C9.83002 17.1099 9.34961 17.8057 9.34961 18.5015V20.8538L9.39931 20.9863C9.61466 21.6158 10.1945 22.03 10.8571 22.03H21.1279C21.8733 22.03 22.5194 21.4833 22.6188 20.7544V18.4849C22.6188 17.8223 22.1549 17.1099 21.5254 16.8615ZM11.205 18.4849C11.3541 18.4186 12.4971 17.9548 13.8224 17.6235C14.6507 17.4247 15.3795 17.3087 15.9925 17.3087C16.5557 17.3087 17.2183 17.3916 17.9638 17.5738C18.9246 17.8057 19.8689 18.1039 20.78 18.4849C20.78 18.5015 20.7966 18.5015 20.7966 18.518V20.2574H11.1718V18.518L11.205 18.4849ZM17.3674 13.8299C17.3674 14.6416 16.6882 15.3043 15.86 15.3043C15.0317 15.3043 14.3525 14.6416 14.3525 13.8299V11.6929C14.3525 10.8812 15.0317 10.2186 15.86 10.2186C16.6882 10.2186 17.3674 10.8812 17.3674 11.6929V13.8299Z" fill="#1EB576"/>
</g>
</svg>
