<svg width="33" height="33" viewBox="0 0 33 33" fill="none" xmlns="http://www.w3.org/2000/svg">
<g id="Frame">
<path id="Vector" d="M21.3338 12.5858H11.6274C10.9601 12.5858 10.4141 12.0398 10.4141 11.3725C10.4141 10.7052 10.9601 10.1592 11.6274 10.1592H21.3338C22.0012 10.1592 22.5471 10.7052 22.5471 11.3725C22.5471 12.0398 22.0012 12.5858 21.3338 12.5858ZM18.9072 17.439H11.6274C10.9601 17.439 10.4141 16.893 10.4141 16.2257C10.4141 15.5584 10.9601 15.0124 11.6274 15.0124H18.9072C19.5745 15.0124 20.1205 15.5584 20.1205 16.2257C20.1205 16.893 19.5745 17.439 18.9072 17.439Z" fill="#1EB576"/>
<rect id="Rectangle 8756" x="6.97324" y="5.57102" width="19.0154" height="21.9661" rx="1.85" stroke="white" stroke-width="2.3"/>
</g>
</svg>
