<svg width="33" height="33" viewBox="0 0 33 33" fill="none" xmlns="http://www.w3.org/2000/svg">
<g id="Frame">
<path id="Rectangle 8749" d="M12.0547 5.17615H20.9082V7.0957C20.9082 7.92413 20.2366 8.5957 19.4082 8.5957H13.5547C12.7263 8.5957 12.0547 7.92413 12.0547 7.0957V5.17615Z" fill="#1EB576"/>
<path id="Rectangle 8748" d="M8.92285 4.54456H24.0389C25.1435 4.54456 26.0389 5.43998 26.0389 6.54456V9.07303V25.0597V26.5636C26.0389 27.6682 25.1435 28.5636 24.0389 28.5636H8.92285C7.81828 28.5636 6.92285 27.6682 6.92285 26.5636V6.54456C6.92285 5.43999 7.81828 4.54456 8.92285 4.54456Z" stroke="white" stroke-width="2" stroke-linecap="round"/>
<path id="Rectangle 8750" d="M12.6621 24.8225C12.6621 24.258 13.1198 23.8003 13.6843 23.8003H19.2786C19.8431 23.8003 20.3008 24.258 20.3008 24.8225V24.8225C20.3008 25.3871 19.8431 25.8447 19.2786 25.8447H13.6843C13.1198 25.8447 12.6621 25.3871 12.6621 24.8225V24.8225Z" fill="#1EB576"/>
</g>
</svg>
