<svg width="32" height="32" viewBox="0 0 32 32" fill="none" xmlns="http://www.w3.org/2000/svg">
<g id="Frame">
<path id="Vector" d="M23.958 29.143H8.04238C6.82832 29.143 5.84082 28.1552 5.84082 26.9411V15.3974C5.84082 14.1836 6.82832 13.1958 8.04238 13.1958H23.9577C25.1718 13.1958 26.1593 14.1836 26.1593 15.3974V26.9408C26.1593 28.1552 25.1721 29.143 23.958 29.143ZM8.12676 26.8574H23.8736V15.4817H8.12676V26.8574Z" fill="white"/>
<path id="Vector_2" d="M13.634 22.3121H18.3665C18.9978 22.3121 19.5093 21.8002 19.5093 21.1693C19.5093 20.5384 18.9978 20.0265 18.3665 20.0265H13.634C13.0031 20.0265 12.4912 20.5381 12.4912 21.1693C12.4912 21.8002 13.0028 22.3121 13.634 22.3121Z" fill="#1EB576"/>
<path id="Vector_3" d="M10.2639 15.4817C9.63266 15.4817 9.12109 14.9699 9.12109 14.3389V9.73768C9.12109 5.94362 12.2077 2.85706 16.0017 2.85706C17.8402 2.85706 19.5689 3.57362 20.8702 4.87487C22.1677 6.17174 22.8823 7.89893 22.8823 9.73768C22.8823 10.3689 22.3705 10.8805 21.7395 10.8805C21.1083 10.8805 20.5967 10.3686 20.5967 9.73768C20.5967 8.50956 20.1198 7.35643 19.2539 6.49143C18.3845 5.62143 17.2295 5.14268 16.002 5.14268C13.4686 5.14268 11.407 7.20393 11.407 9.73768V14.3386C11.4067 14.9699 10.8952 15.4817 10.2639 15.4817Z" fill="white"/>
</g>
</svg>
