<svg width="32" height="32" viewBox="0 0 32 32" fill="none" xmlns="http://www.w3.org/2000/svg">
<g id="Frame">
<path id="Vector (Stroke)" fill-rule="evenodd" clip-rule="evenodd" d="M25.2212 8.88761C25.2154 8.88418 25.1919 8.87071 25.1465 8.85557C25.0744 8.83152 24.996 8.8201 24.9358 8.8201H24.1172C23.0031 8.8201 21.804 8.747 20.6335 8.49614L20.4672 8.46049L20.3079 8.40077C19.0321 7.92237 17.8035 7.27251 16.6469 6.36775C16.4832 6.2456 16.352 6.15512 16.2094 6.05935C16.0514 5.99494 15.8656 5.98884 15.7023 6.04106C14.456 7.23325 13.0003 7.9688 11.5067 8.44045L11.3876 8.47805L11.2652 8.50253C10.05 8.74559 8.86725 8.8201 7.74417 8.8201H7.00282L6.89883 8.80855C6.89721 8.809 6.89532 8.80956 6.89319 8.81025C6.87378 8.81654 6.84075 8.83181 6.8028 8.86502L6.73755 8.92211L6.70137 8.94924V12.4553C6.70137 18.7334 9.05917 22.0125 11.232 23.7767C12.3595 24.6921 13.5042 25.2518 14.3907 25.5846C15.1101 25.8546 15.6335 25.9655 15.7951 25.9962C15.8834 26.005 15.9585 26.0166 16.0167 26.0268C16.0394 26.0211 16.0631 26.0151 16.0877 26.0089C16.9164 25.7994 18.7858 25.3268 20.7463 23.7461C22.9275 21.9876 25.2965 18.7262 25.2965 12.4553V8.94926L25.2696 8.92916L25.2212 8.88761ZM15.5214 28.2826C15.0438 28.2143 4.40137 26.3724 4.40137 12.4553V8.90782C4.40137 8.22564 4.74246 7.5434 5.28823 7.13409C5.834 6.65654 6.51621 6.45189 7.1302 6.5201H7.74417C8.7675 6.5201 9.79079 6.45189 10.8141 6.2472C12.1103 5.83789 13.2701 5.2239 14.2252 4.26882C14.2593 4.23471 14.3104 4.2006 14.3616 4.16648C14.4128 4.13236 14.4639 4.09825 14.498 4.06414C15.3849 3.58661 16.4765 3.58661 17.3633 4.06414C17.5677 4.20044 17.773 4.33729 18.0455 4.54169C19.0006 5.29212 20.0239 5.83789 21.1155 6.2472C22.0705 6.45189 23.0939 6.5201 24.1172 6.5201H24.9358C25.5498 6.5201 26.232 6.72476 26.7096 7.13409C27.2553 7.5434 27.5965 8.22564 27.5965 8.90788V12.4553C27.5965 25.6634 17.9493 27.9339 16.6164 28.2476C16.5449 28.2644 16.4973 28.2756 16.4765 28.2826C16.2718 28.3508 16.1353 28.3508 15.9989 28.3508C15.8862 28.3508 15.7942 28.3301 15.7115 28.3115C15.644 28.2963 15.5827 28.2826 15.5214 28.2826Z" fill="white"/>
<path id="Union" fill-rule="evenodd" clip-rule="evenodd" d="M16.9741 16.3659C18.0038 15.9733 18.7353 14.9765 18.7353 13.8088C18.7353 12.2978 17.5105 11.0729 15.9995 11.0729C14.4885 11.0729 13.2637 12.2978 13.2637 13.8088C13.2637 14.9765 13.9953 15.9734 15.0251 16.366V20.7408C15.0251 21.279 15.4614 21.7153 15.9996 21.7153C16.5378 21.7153 16.9741 21.279 16.9741 20.7408V16.3659Z" fill="#1EB576"/>
</g>
</svg>
