<svg width="32" height="32" viewBox="0 0 32 32" fill="none" xmlns="http://www.w3.org/2000/svg">
<g id="Frame">
<path id="Vector" d="M12.7998 4.80005C13.3656 4.80005 13.9082 5.02481 14.3083 5.42489C14.7084 5.82497 14.9331 6.36759 14.9331 6.93339V12.8C14.9331 13.3658 14.7084 13.9085 14.3083 14.3086C13.9082 14.7086 13.3656 14.9334 12.7998 14.9334H6.93315C6.36735 14.9334 5.82473 14.7086 5.42465 14.3086C5.02457 13.9085 4.7998 13.3658 4.7998 12.8V6.93339C4.7998 6.36759 5.02457 5.82497 5.42465 5.42489C5.82473 5.02481 6.36735 4.80005 6.93315 4.80005H12.7998ZM12.7998 6.93339H6.93315V12.8H12.7998V6.93339Z" fill="white"/>
<path id="Vector_2" d="M19.1999 24V19.2H21.8665V24H23.9999V21.3333H26.6665V24.5333C26.6665 25.0991 26.4417 25.6417 26.0417 26.0418C25.6416 26.4419 25.099 26.6666 24.5332 26.6666H21.3332V24H19.1999ZM19.1999 24V26.6666H16.5332V24H19.1999ZM19.1999 16.5333V19.2H16.5332V16.5333H19.1999ZM26.6665 16.5333V19.2H23.9999V16.5333H26.6665Z" fill="#1EB576"/>
<path id="Vector_3" d="M24.5331 4.80005C25.0989 4.80006 25.6416 5.02482 26.0416 5.4249C26.4417 5.82498 26.6665 6.3676 26.6665 6.93339V12.8C26.6665 13.3658 26.4417 13.9085 26.0416 14.3085C25.6416 14.7086 25.0989 14.9334 24.5331 14.9334H18.6665C18.1007 14.9334 17.5581 14.7086 17.158 14.3085C16.7579 13.9085 16.5331 13.3658 16.5331 12.8V6.93339C16.5331 6.3676 16.7579 5.82498 17.158 5.4249C17.5581 5.02482 18.1007 4.80006 18.6665 4.80005H24.5331ZM24.5331 6.93339H18.6665V12.8H24.5331V6.93339ZM12.7998 16.5334C13.3656 16.5334 13.9082 16.7582 14.3083 17.1582C14.7084 17.5583 14.9331 18.1009 14.9331 18.6667V24.5334C14.9331 25.0992 14.7084 25.6418 14.3083 26.0419C13.9082 26.4419 13.3656 26.6667 12.7998 26.6667H6.93315C6.36736 26.6667 5.82474 26.4419 5.42466 26.0419C5.02458 25.6418 4.79981 25.0992 4.7998 24.5334V18.6667C4.79981 18.1009 5.02458 17.5583 5.42466 17.1582C5.82474 16.7582 6.36736 16.5334 6.93315 16.5334H12.7998ZM12.7998 18.6667H6.93315V24.5334H12.7998V18.6667Z" fill="white"/>
</g>
</svg>
