<svg width="32" height="32" viewBox="0 0 32 32" fill="none" xmlns="http://www.w3.org/2000/svg">
<g id="Frame">
<path id="Vector" d="M6.84169 6.74387H25.1569C25.7351 6.74387 26.2896 6.97355 26.6984 7.38237C27.1072 7.7912 27.3369 8.34568 27.3369 8.92384V23.076C27.3369 23.6542 27.1072 24.2087 26.6984 24.6175C26.2896 25.0263 25.7351 25.256 25.1569 25.256H6.84169C6.26353 25.256 5.70904 25.0263 5.30022 24.6175C4.89139 24.2087 4.66172 23.6542 4.66172 23.076V8.92384C4.66172 8.34568 4.89139 7.79119 5.30022 7.38237C5.70904 6.97355 6.26353 6.74387 6.84169 6.74387Z" stroke="white" stroke-width="2.3"/>
<path id="Union" fill-rule="evenodd" clip-rule="evenodd" d="M9.28692 11.748C9.48916 11.5929 9.73693 11.5091 9.99175 11.5093L10.0226 11.4862C10.2251 11.489 10.4238 11.542 10.6008 11.6404L15.9658 14.7763L21.3943 11.6404C21.5827 11.545 21.7925 11.4999 22.0034 11.5094L21.9725 11.4862C22.2274 11.486 22.4751 11.5698 22.6774 11.7249C22.8796 11.8799 23.025 12.0974 23.0909 12.3435C23.1569 12.5896 23.1397 12.8507 23.042 13.086C22.9443 13.3214 22.7716 13.5179 22.5508 13.645L16.8063 16.9634C16.7736 16.9952 16.739 17.0252 16.7026 17.0531C16.5003 17.2081 16.2526 17.292 15.9977 17.2917C15.7946 17.2935 15.5948 17.2402 15.4195 17.1375L9.41351 13.6681C9.19267 13.541 9.02 13.3445 8.92232 13.1091C8.82464 12.8738 8.80743 12.6127 8.87337 12.3666C8.9393 12.1205 9.08468 11.903 9.28692 11.748Z" fill="#1EB576"/>
</g>
</svg>
