<svg width="32" height="32" viewBox="0 0 32 32" fill="none" xmlns="http://www.w3.org/2000/svg">
<g id="Frame">
<path id="Vector" d="M7.00204 12.155C7.00204 8.75051 9.76293 5.98962 13.1675 5.98962C13.4046 5.98962 13.6417 6.00656 13.8788 6.0235C16.555 6.32838 18.7739 8.41175 19.2312 11.071C19.6716 13.527 18.5707 15.9999 16.4704 17.338C19.8918 18.5237 22.4664 21.5048 23.0592 25.1464C23.127 25.5529 22.856 25.9256 22.4494 25.9933C22.4156 25.9933 22.3648 26.0103 22.3309 26.0103H22.2631C21.8905 26.0103 21.6025 25.7393 21.5348 25.3666C20.8573 21.3523 17.3681 18.3035 13.1505 18.3035C8.93297 18.3035 5.44375 21.3523 4.76623 25.3666C4.69848 25.7223 4.41054 26.0103 4.0379 26.0103H3.97015C3.56364 26.0103 3.22488 25.6715 3.24182 25.265C3.24182 25.2311 3.24182 25.1803 3.25876 25.1464C3.85159 21.5048 6.44309 18.5237 9.84762 17.338C8.06913 16.2032 7.00204 14.2553 7.00204 12.155ZM8.5434 12.155C8.5434 14.7127 10.6098 16.7791 13.1675 16.7791C15.7251 16.7791 17.7915 14.7127 17.7915 12.155C17.7915 9.5974 15.7081 7.53098 13.1675 7.53098C10.6268 7.53098 8.5434 9.5974 8.5434 12.155Z" fill="white" stroke="white" stroke-width="0.7"/>
<path id="Vector_2" d="M23.1864 16.3219C24.6938 15.3734 25.5915 13.7135 25.5915 11.935C25.5915 9.34349 23.6945 7.14156 21.1199 6.76893C20.7642 6.71811 20.4255 6.97218 20.3916 7.32788V7.41257C20.3916 7.73439 20.6287 8.0054 20.9506 8.05621C22.8815 8.32722 24.3043 9.98713 24.3043 11.9181C24.3043 13.849 22.8984 15.492 20.9844 15.7799C20.6457 15.8307 20.3916 16.1187 20.3916 16.4574C20.3916 16.8131 20.6626 17.118 21.0014 17.1519C24.2873 17.4229 26.9296 19.8958 27.4717 23.0802C27.5225 23.402 27.7935 23.6391 28.1153 23.6391C28.471 23.6391 28.7589 23.3342 28.7589 22.9785C28.7589 22.9447 28.7589 22.9108 28.742 22.8769C28.2339 19.8281 26.0658 17.3213 23.1864 16.3219Z" fill="#1EB576" stroke="#1EB576" stroke-width="0.7"/>
</g>
</svg>
