<svg width="32" height="32" viewBox="0 0 32 32" fill="none" xmlns="http://www.w3.org/2000/svg">
<g id="Frame">
<path id="Vector" d="M23.5556 3.67432C24.4457 3.67432 25.2832 4.02355 25.9125 4.65284C26.5386 5.27738 26.8912 6.12481 26.8931 7.0091V13.4527C26.8865 13.6925 26.7867 13.9203 26.6147 14.0877C26.4428 14.255 26.2123 14.3486 25.9724 14.3486C25.7325 14.3486 25.5021 14.255 25.3301 14.0877C25.1582 13.9203 25.0583 13.6925 25.0518 13.4527V7.0091C25.0494 6.61247 24.8907 6.23278 24.61 5.95251C24.3294 5.67223 23.9495 5.51401 23.5528 5.51222H15.8698V11.6141C15.8698 11.9312 15.7062 12.2256 15.4398 12.3941C15.1727 12.5625 14.8358 12.5796 14.5516 12.444L12.3864 11.4032L10.0322 12.7207C9.89213 12.799 9.73407 12.8396 9.57356 12.8384C9.41306 12.8372 9.25562 12.7942 9.11671 12.7138C8.97807 12.6324 8.86313 12.5161 8.78326 12.3765C8.70339 12.237 8.66136 12.079 8.66134 11.9181V5.5129H7.0008C6.60405 5.51524 6.22425 5.67408 5.94396 5.95488C5.66367 6.23569 5.50553 6.61577 5.50391 7.01253V24.8902C5.50643 25.2869 5.66535 25.6665 5.94613 25.9466C6.22692 26.2268 6.6069 26.3848 7.00354 26.3864H10.945C11.4531 26.3864 11.8653 26.7939 11.8653 27.302C11.8653 27.8101 11.4531 28.2223 10.945 28.2223H7.0008C6.5629 28.2225 6.12927 28.1363 5.72479 27.9685C5.32032 27.8006 4.95298 27.5546 4.64385 27.2444C4.33378 26.9358 4.08777 26.569 3.91996 26.1649C3.75214 25.7609 3.66584 25.3277 3.66602 24.8902V7.0091C3.66875 6.11891 4.01524 5.28077 4.64454 4.65216C4.95322 4.3416 5.32038 4.09528 5.72481 3.92744C6.12924 3.75961 6.56292 3.67358 7.0008 3.67432H23.5556ZM12.7507 9.53998L14.0285 10.1535V5.5129H10.502V10.3521L11.903 9.56737C12.0315 9.49437 12.1758 9.45373 12.3235 9.44896C12.4712 9.44419 12.6178 9.47543 12.7507 9.53998ZM9.09411 18.2227H13.6806C13.9249 18.2227 14.1592 18.1257 14.3319 17.953C14.5046 17.7803 14.6016 17.546 14.6016 17.3017C14.6016 17.0575 14.5046 16.8232 14.3319 16.6505C14.1592 16.4778 13.9249 16.3807 13.6806 16.3807H9.09411C8.84984 16.3807 8.61558 16.4778 8.44286 16.6505C8.27014 16.8232 8.17311 17.0575 8.17311 17.3017C8.17311 17.546 8.27014 17.7803 8.44286 17.953C8.61558 18.1257 8.84984 18.2227 9.09411 18.2227ZM9.09411 22.5682H10.932C11.1699 22.559 11.3951 22.4581 11.5602 22.2865C11.7253 22.1149 11.8175 21.886 11.8175 21.6479C11.8175 21.4098 11.7253 21.1809 11.5602 21.0093C11.3951 20.8377 11.1699 20.7368 10.932 20.7276H9.09411C8.85617 20.7368 8.63103 20.8377 8.46594 21.0093C8.30084 21.1809 8.20862 21.4098 8.20862 21.6479C8.20862 21.886 8.30084 22.1149 8.46594 22.2865C8.63103 22.4581 8.85617 22.559 9.09411 22.5682Z" fill="white"/>
<path id="Vector_2" d="M23.4097 19.115C24.3755 19.5058 25.2524 20.0876 25.9879 20.8255C26.7088 21.5432 27.2804 22.3965 27.6698 23.3363C28.0592 24.276 28.2586 25.2836 28.2565 26.3008C28.2565 26.6912 28.2188 27.1006 28.1455 27.5539C28.1102 27.7693 27.9995 27.9651 27.8332 28.1064C27.6669 28.2478 27.4558 28.3255 27.2376 28.3257H13.7943C13.3438 28.3257 12.9589 27.999 12.8863 27.5533C12.811 27.1013 12.7754 26.6905 12.7754 26.2981C12.7727 25.2814 12.9716 24.2742 13.3606 23.3348C13.7497 22.3954 14.3211 21.5426 15.042 20.8255C15.7772 20.0877 16.6539 19.5059 17.6194 19.115C16.9259 18.3798 16.54 17.4071 16.5409 16.3965C16.5409 14.2052 18.324 12.4221 20.5146 12.4221C22.7058 12.4221 24.4889 14.2052 24.4889 16.3958C24.4898 17.4068 24.1037 18.3797 23.4097 19.115ZM22.6579 20.8002C21.2465 20.2502 19.6778 20.2636 18.2761 20.8378L20.5372 22.7873L22.6579 20.8002ZM22.6476 16.3958C22.6476 15.2194 21.6889 14.2607 20.5125 14.2607C19.9465 14.2618 19.404 14.4871 19.0037 14.8872C18.6035 15.2874 18.378 15.8298 18.3768 16.3958C18.3768 17.5736 19.3354 18.5316 20.5125 18.5316C21.6889 18.5316 22.6476 17.5729 22.6476 16.3958ZM14.6113 26.2988C14.6113 26.3597 14.6113 26.422 14.614 26.485H26.4104C26.4131 26.422 26.4152 26.3597 26.4152 26.3015C26.4156 25.4397 26.2268 24.5882 25.8621 23.8073C25.4975 23.0264 24.9658 22.3351 24.3047 21.7821L21.1945 24.6964C21.0245 24.8566 20.7995 24.9455 20.5659 24.945C20.3453 24.9447 20.1321 24.8656 19.9647 24.7218L16.6368 21.854C16.0009 22.4067 15.491 23.0895 15.1417 23.8562C14.7924 24.6228 14.6111 25.4563 14.6113 26.2988Z" fill="#1EB576"/>
</g>
</svg>
