<svg width="32" height="32" viewBox="0 0 32 32" fill="none" xmlns="http://www.w3.org/2000/svg">
<g id="Frame">
<path id="Vector" d="M9.34279 9.34277H17.9024C18.1546 9.34277 18.3964 9.44295 18.5747 9.62126C18.753 9.79958 18.8532 10.0414 18.8532 10.2936C18.8532 10.5458 18.753 10.7876 18.5747 10.9659C18.3964 11.1443 18.1546 11.2444 17.9024 11.2444H9.34279C9.09061 11.2444 8.84876 11.1443 8.67045 10.9659C8.49213 10.7876 8.39196 10.5458 8.39196 10.2936C8.39196 10.0414 8.49213 9.79958 8.67045 9.62126C8.84876 9.44295 9.09061 9.34277 9.34279 9.34277ZM9.34279 14.0976H13.8601C14.1124 14.0976 14.3543 14.1978 14.5327 14.3762C14.7111 14.5546 14.8113 14.7965 14.8113 15.0488C14.8113 15.3011 14.7111 15.543 14.5327 15.7214C14.3543 15.8998 14.1124 16 13.8601 16H9.34279C9.09052 16 8.84858 15.8998 8.6702 15.7214C8.49182 15.543 8.3916 15.3011 8.3916 15.0488C8.3916 14.7965 8.49182 14.5546 8.6702 14.3762C8.84858 14.1978 9.09052 14.0976 9.34279 14.0976Z" fill="white"/>
<path id="Vector_2" d="M24.5599 4.58716C25.5688 4.58716 26.5364 4.98794 27.2498 5.70133C27.9632 6.41473 28.364 7.38229 28.364 8.39119V13.1468C28.364 13.3989 28.2638 13.6408 28.0855 13.8191C27.9072 13.9974 27.6653 14.0976 27.4131 14.0976C27.161 14.0976 26.9191 13.9974 26.7408 13.8191C26.5625 13.6408 26.4623 13.3989 26.4623 13.1468V8.39119C26.4621 7.88677 26.2616 7.40308 25.9049 7.04647C25.5481 6.68986 25.0644 6.48953 24.5599 6.48953H7.44075C6.93633 6.48953 6.45256 6.68986 6.09582 7.04647C5.73908 7.40308 5.53856 7.88677 5.53838 8.39119V23.6087C5.53856 24.1131 5.73908 24.5968 6.09582 24.9534C6.45256 25.31 6.93633 25.5104 7.44075 25.5104H12.1963C12.4486 25.5104 12.6905 25.6106 12.8689 25.789C13.0473 25.9674 13.1475 26.2093 13.1475 26.4616C13.1475 26.7138 13.0473 26.9558 12.8689 27.1341C12.6905 27.3125 12.4486 27.4127 12.1963 27.4127H7.44075C6.43185 27.4127 5.46429 27.012 4.75089 26.2986C4.0375 25.5852 3.63672 24.6176 3.63672 23.6087V8.39119C3.63672 7.38229 4.0375 6.41473 4.75089 5.70133C5.46429 4.98794 6.43185 4.58716 7.44075 4.58716H24.5599Z" fill="white"/>
<path id="Vector_3" d="M24.5593 17.9023C25.5681 17.9023 26.5357 18.3031 27.2491 19.0165C27.9625 19.7299 28.3633 20.6975 28.3633 21.7064V23.6087C28.3633 24.6176 27.9625 25.5852 27.2491 26.2986C26.5357 27.012 25.5681 27.4128 24.5593 27.4128H18.8529C17.844 27.4128 16.8764 27.012 16.163 26.2986C15.4496 25.5852 15.0488 24.6176 15.0488 23.6087V21.7064C15.0488 20.6975 15.4496 19.7299 16.163 19.0165C16.8764 18.3031 17.844 17.9023 18.8529 17.9023H24.5593ZM24.5593 19.804H18.8529C18.3483 19.804 17.8644 20.0044 17.5077 20.3612C17.1509 20.718 16.9505 21.2018 16.9505 21.7064V23.6087C16.9507 24.1132 17.1512 24.5968 17.5079 24.9535C17.8647 25.3101 18.3484 25.5104 18.8529 25.5104H24.5593C25.0637 25.5104 25.5474 25.3101 25.9042 24.9535C26.2609 24.5968 26.4614 24.1132 26.4616 23.6087V21.7064C26.4616 21.2018 26.2612 20.718 25.9044 20.3612C25.5477 20.0044 25.0638 19.804 24.5593 19.804Z" fill="#1EB576"/>
<path id="Vector_4" d="M20.7555 21.7064H22.6579C23.2918 21.7064 23.6087 22.0234 23.6087 22.6572V22.658C23.6087 23.2918 23.2918 23.6088 22.6579 23.6088H20.7555C20.1216 23.6088 19.8047 23.2918 19.8047 22.658V22.6572C19.8047 22.0234 20.1216 21.7064 20.7555 21.7064Z" fill="#1EB576"/>
<path id="Vector_5" d="M21.7064 13.1469C22.7153 13.1469 23.6828 13.5476 24.3962 14.261C25.1096 14.9744 25.5104 15.942 25.5104 16.9509V18.8532H23.6087V16.9509C23.6087 16.4463 23.4083 15.9625 23.0515 15.6057C22.6948 15.2489 22.2109 15.0485 21.7064 15.0485C21.2018 15.0485 20.718 15.2489 20.3612 15.6057C20.0044 15.9625 19.804 16.4463 19.804 16.9509V18.8532H17.9023V16.9509C17.9023 15.942 18.3031 14.9744 19.0165 14.261C19.7299 13.5476 20.6975 13.1469 21.7064 13.1469Z" fill="#1EB576"/>
</g>
</svg>
