<svg width="32" height="32" viewBox="0 0 32 32" fill="none" xmlns="http://www.w3.org/2000/svg">
<g id="Frame">
<path id="Vector" d="M20.3083 22.4998V24.8263C20.3083 25.1354 20.1855 25.4318 19.967 25.6503C19.7485 25.8689 19.452 25.9917 19.143 25.9917H7.5785C7.26943 25.9917 6.97302 25.8689 6.75448 25.6503C6.53593 25.4318 6.41315 25.1354 6.41315 24.8263V7.17372C6.41315 6.86465 6.53593 6.56824 6.75448 6.34969C6.97302 6.13115 7.26943 6.00837 7.5785 6.00837H19.143C19.452 6.00837 19.7485 6.13115 19.967 6.34969C20.1855 6.56824 20.3083 6.86465 20.3083 7.17372V9.50022C20.3083 9.80948 20.4312 10.1061 20.6498 10.3247C20.8685 10.5434 21.1651 10.6663 21.4744 10.6663C21.7836 10.6663 22.0802 10.5434 22.2989 10.3247C22.5176 10.1061 22.6404 9.80948 22.6404 9.50022V7.17372C22.6404 6.24614 22.2719 5.35655 21.616 4.70065C20.9601 4.04475 20.0706 3.67627 19.143 3.67627H7.5785C6.65092 3.67627 5.76133 4.04475 5.10543 4.70065C4.44953 5.35655 4.08105 6.24614 4.08105 7.17372V24.8263C4.08105 25.7539 4.44953 26.6435 5.10543 27.2994C5.76133 27.9553 6.65092 28.3238 7.5785 28.3238H19.143C20.0706 28.3238 20.9601 27.9553 21.616 27.2994C22.2719 26.6435 22.6404 25.7539 22.6404 24.8263V22.4998C22.6404 22.1906 22.5176 21.894 22.2989 21.6753C22.0802 21.4566 21.7836 21.3338 21.4744 21.3338C21.1651 21.3338 20.8685 21.4566 20.6498 21.6753C20.4312 21.894 20.3083 22.1906 20.3083 22.4998Z" fill="white"/>
<path id="Vector_2" d="M25.8707 17.2318L24.6298 18.4727C24.4111 18.6916 24.2883 18.9884 24.2885 19.2978C24.2886 19.6073 24.4116 19.904 24.6305 20.1228C24.8495 20.3415 25.1463 20.4643 25.4557 20.4641C25.7652 20.464 26.0619 20.341 26.2806 20.1221L29.5766 16.8261C29.6851 16.7178 29.7711 16.5893 29.8297 16.4478C29.8884 16.3062 29.9186 16.1546 29.9186 16.0014C29.9186 15.8482 29.8884 15.6965 29.8297 15.555C29.7711 15.4134 29.6851 15.2849 29.5766 15.1767L26.2806 11.8779C26.0619 11.659 25.7652 11.5359 25.4557 11.5358C25.1463 11.5356 24.8495 11.6584 24.6305 11.8772C24.4116 12.0959 24.2886 12.3926 24.2885 12.7021C24.2883 13.0115 24.4111 13.3084 24.6298 13.5273L26.0008 14.9011H16.5284C16.2191 14.9011 15.9225 15.0239 15.7038 15.2426C15.4852 15.4613 15.3623 15.7579 15.3623 16.0671C15.3623 16.3764 15.4852 16.673 15.7038 16.8916C15.9225 17.1103 16.2191 17.2332 16.5284 17.2332L25.8707 17.2318Z" fill="#1EB576"/>
</g>
</svg>
