<svg width="15" height="15" viewBox="0 0 15 15" fill="none" xmlns="http://www.w3.org/2000/svg">
<path id="Union" fill-rule="evenodd" clip-rule="evenodd" d="M13.5 7.5C13.5 10.8137 10.8137 13.5 7.5 13.5C4.18629 13.5 1.5 10.8137 1.5 7.5C1.5 4.18629 4.18629 1.5 7.5 1.5C10.8137 1.5 13.5 4.18629 13.5 7.5ZM15 7.5C15 11.6421 11.6421 15 7.5 15C3.35786 15 0 11.6421 0 7.5C0 3.35786 3.35786 0 7.5 0C11.6421 0 15 3.35786 15 7.5ZM7.50118 11.3777C7.11979 11.3777 6.81062 11.0685 6.81062 10.6871V8.19057H4.31361C3.93222 8.19057 3.62305 7.88139 3.62305 7.5C3.62305 7.11861 3.93222 6.80943 4.31361 6.80943H6.81062V4.31288C6.81062 3.93149 7.11979 3.62231 7.50118 3.62231C7.88257 3.62231 8.19175 3.93149 8.19175 4.31288V6.80943H10.6879C11.0692 6.80943 11.3784 7.11861 11.3784 7.5C11.3784 7.88139 11.0692 8.19057 10.6879 8.19057H8.19175V10.6871C8.19175 11.0685 7.88257 11.3777 7.50118 11.3777Z" fill="white"/>
</svg>
