<svg width="24" height="24" viewBox="0 0 24 24" fill="none" xmlns="http://www.w3.org/2000/svg">
<g id="Frame">
<path id="Vector" d="M12 22.0781C6.44297 22.0781 1.92188 17.5573 1.92188 12C1.92188 6.44297 6.44297 1.92188 12 1.92188C17.5573 1.92188 22.0781 6.44297 22.0781 12C22.0781 17.5573 17.5573 22.0781 12 22.0781ZM12 3.32812C7.21828 3.32812 3.32812 7.21828 3.32812 12C3.32812 16.7817 7.21828 20.6719 12 20.6719C16.7817 20.6719 20.6719 16.7817 20.6719 12C20.6719 7.21828 16.7817 3.32812 12 3.32812Z" fill="white"/>
<path id="Vector_2" d="M12 22.0781C9.24023 22.0781 7.07812 17.651 7.07812 12C7.07812 6.34875 9.24023 1.92188 12 1.92188C14.7598 1.92188 16.9219 6.34875 16.9219 12C16.9219 17.651 14.7598 22.0781 12 22.0781ZM12 3.32812C10.3371 3.32812 8.48438 6.88945 8.48438 12C8.48438 17.1105 10.3371 20.6719 12 20.6719C13.6631 20.6719 15.5156 17.1105 15.5156 12C15.5156 6.88945 13.6631 3.32812 12 3.32812Z" fill="white"/>
<path id="Vector_3" d="M21.375 12.7031H2.625C2.23664 12.7031 1.92188 12.3884 1.92188 12C1.92188 11.6116 2.23664 11.2969 2.625 11.2969H21.375C21.7631 11.2969 22.0781 11.6116 22.0781 12C22.0781 12.3884 21.7631 12.7031 21.375 12.7031Z" fill="white"/>
<path id="Vector_4" d="M12 21.9994C11.6116 21.9994 11.2969 21.6844 11.2969 21.2962V2.625C11.2969 2.23664 11.6116 1.92188 12 1.92188C12.3884 1.92188 12.7031 2.23664 12.7031 2.625V21.2962C12.7031 21.6844 12.3884 21.9994 12 21.9994Z" fill="white"/>
<path id="Vector_5" d="M11.9993 22.0781C9.555 22.0781 7.19273 21.1838 5.34797 19.5591C5.19656 19.4255 5.10938 19.233 5.10938 19.0312C5.10938 18.8295 5.19633 18.637 5.34797 18.5034C7.19273 16.8787 9.555 15.9844 11.9993 15.9844C14.4438 15.9844 16.8059 16.8787 18.6506 18.5034C18.802 18.637 18.8892 18.8295 18.8892 19.0312C18.8892 19.233 18.8023 19.4255 18.6506 19.5591C16.8059 21.1838 14.4438 22.0781 11.9993 22.0781ZM6.9382 19.0312C8.41078 20.0941 10.1787 20.6719 11.9993 20.6719C13.8199 20.6719 15.5878 20.0941 17.0604 19.0312C15.5878 17.9684 13.8199 17.3906 11.9993 17.3906C10.1787 17.3906 8.41078 17.9684 6.9382 19.0312ZM11.9993 8.01562C9.55453 8.01562 7.1925 7.12102 5.34797 5.49633C5.19633 5.36297 5.10938 5.17055 5.10938 4.96875C5.10938 4.76695 5.19609 4.57453 5.34797 4.44117C7.1925 2.81648 9.55453 1.92188 11.9993 1.92188C14.4438 1.92188 16.8063 2.81648 18.6506 4.44117C18.802 4.57453 18.8892 4.76695 18.8892 4.96875C18.8892 5.17055 18.8023 5.36297 18.6506 5.49633C16.8063 7.12102 14.4438 8.01562 11.9993 8.01562ZM6.9382 4.96875C8.41055 6.03188 10.1784 6.60938 11.9993 6.60938C13.8199 6.60938 15.588 6.03188 17.0604 4.96875C15.5883 3.90562 13.8199 3.32812 11.9993 3.32812C10.1784 3.32812 8.41055 3.90562 6.9382 4.96875Z" fill="white"/>
</g>
</svg>
