<svg width="25" height="24" viewBox="0 0 25 24" fill="none" xmlns="http://www.w3.org/2000/svg">
<g id="Frame">
<path id="Union" d="M18.0439 2.86328C19.9309 2.86328 21.4668 4.39877 21.4668 6.28613V15.167C21.4666 17.0542 19.9307 18.5898 18.0439 18.5898H17.2861L12.2773 21.4834V18.5889H7.9541C6.06673 18.5889 4.53151 17.0543 4.53125 15.167V6.28613C4.53125 4.39878 6.06657 2.8633 7.9541 2.86328H18.0439ZM7.9541 4.30566C6.86199 4.30568 5.97363 5.19402 5.97363 6.28613V15.167C5.97379 16.259 6.86209 17.1474 7.9541 17.1475H13.7197V18.9844L16.8994 17.1475H18.0439C19.1354 17.1475 20.0233 16.259 20.0234 15.167V6.28613C20.0234 5.19401 19.1355 4.30566 18.0439 4.30566H7.9541ZM13.5264 13.1836H8.6416V11.7412H13.5264V13.1836ZM17.3604 9.625H8.6416V8.18262H17.3604V9.625Z" fill="white"/>
</g>
</svg>
