<svg width="25" height="25" viewBox="0 0 25 25" fill="none" xmlns="http://www.w3.org/2000/svg">
<g id="Group 37889">
<path id="Vector 902 (Stroke)" d="M19.4883 11.528C19.4883 11.1143 19.2987 10.7235 18.9736 10.4675L13.5537 6.19895C13.0661 5.81494 12.3786 5.81298 11.8887 6.19406L6.3916 10.4695C6.0628 10.7252 5.87109 11.1193 5.87109 11.5359V18.2868C5.87124 19.0323 6.47521 19.6364 7.2207 19.6364H18.1387C18.8841 19.6364 19.4881 19.0322 19.4883 18.2868V11.528ZM12.0752 17.2409V13.9773C12.0752 13.6183 12.3666 13.3269 12.7256 13.3269C13.0846 13.3269 13.376 13.6183 13.376 13.9773V17.2409C13.3757 17.5997 13.0844 17.8904 12.7256 17.8904C12.3667 17.8904 12.0754 17.5997 12.0752 17.2409ZM20.7881 18.2868C20.7879 19.7502 19.6021 20.9362 18.1387 20.9363H7.2207C5.75724 20.9363 4.57046 19.7503 4.57031 18.2868V11.5359C4.57031 10.7182 4.94837 9.94613 5.59375 9.44406L11.0908 5.1677C12.0525 4.41964 13.4003 4.42367 14.3574 5.17746L19.7783 9.44602C20.4163 9.94849 20.7881 10.7159 20.7881 11.528V18.2868Z" fill="#1EB576"/>
</g>
</svg>
