<svg width="25" height="25" viewBox="0 0 25 25" fill="none" xmlns="http://www.w3.org/2000/svg">
<g id="Group 37890">
<path id="Union" d="M18.3438 6.34961L18.5107 6.3584C19.1849 6.43328 19.709 7.00517 19.709 7.69922V18.4766L19.6992 18.6436C19.6299 19.2676 19.1348 19.7627 18.5107 19.832L18.3438 19.8418H15.667L15.499 19.832C14.8754 19.7623 14.3798 19.2673 14.3105 18.6436L14.3018 18.4766V7.69922L14.3076 7.56934C14.3682 6.93523 14.8679 6.42896 15.499 6.3584L15.667 6.34961H18.3438ZM9.19238 11.0234L9.35938 11.0322C10.0336 11.1071 10.5576 11.679 10.5576 12.373V18.4766L10.5479 18.6436C10.4785 19.2676 9.98338 19.7627 9.35938 19.832L9.19238 19.8418H6.51562L6.34766 19.832C5.72407 19.7623 5.22847 19.2673 5.15918 18.6436L5.15039 18.4766V12.373L5.15625 12.2432C5.21685 11.6091 5.71649 11.1028 6.34766 11.0322L6.51562 11.0234H9.19238Z" stroke="#1EB576" stroke-width="1.3"/>
</g>
</svg>
