<svg width="25" height="25" viewBox="0 0 25 25" fill="none" xmlns="http://www.w3.org/2000/svg">
<g id="Group 37892">
<path id="Vector 906" d="M11.8672 9.22656L9.79684 11.4093C9.73641 11.473 9.78158 11.5781 9.8694 11.5781H16.3275" stroke="#1EB576" stroke-width="1.3" stroke-linecap="round"/>
<path id="Vector 907" d="M14.0977 16.4688L16.168 14.286C16.2284 14.2223 16.1833 14.1172 16.0954 14.1172H9.63737" stroke="#1EB576" stroke-width="1.3" stroke-linecap="round"/>
<path id="Polygon 33" d="M11.7539 4.9209C12.4356 4.52735 13.2656 4.5033 13.9658 4.84766L14.1045 4.9209L19.0029 7.74902C19.7299 8.16875 20.1776 8.94474 20.1777 9.78418V15.4414C20.1776 16.2808 19.7299 17.0568 19.0029 17.4766L14.1045 20.3047C13.4228 20.6982 12.5928 20.7223 11.8926 20.3779L11.7539 20.3047L6.85547 17.4766C6.12848 17.0568 5.68079 16.2808 5.68066 15.4414V9.78418C5.68078 8.99714 6.07434 8.26615 6.72266 7.83203L6.85547 7.74902L11.7539 4.9209Z" stroke="#1EB576" stroke-width="1.3"/>
</g>
</svg>
