<svg width="25" height="25" viewBox="0 0 25 25" fill="none" xmlns="http://www.w3.org/2000/svg">
<g id="Group 37891">
<path id="Vector 904 (Stroke)" d="M16.9824 8.62109L17.1133 8.63477C17.4093 8.69551 17.6318 8.9575 17.6318 9.27148C17.6318 9.58547 17.4093 9.84746 17.1133 9.9082L16.9824 9.92188H12.4238C12.0648 9.92188 11.7734 9.63047 11.7734 9.27148C11.7734 8.9125 12.0648 8.62109 12.4238 8.62109H16.9824Z" fill="#1EB576"/>
<path id="Vector 905 (Stroke)" d="M16.9824 12.0391L17.1133 12.0527C17.4093 12.1135 17.6318 12.3755 17.6318 12.6895C17.6318 13.0034 17.4093 13.2654 17.1133 13.3262L16.9824 13.3398H12.4238C12.0648 13.3398 11.7734 13.0484 11.7734 12.6895C11.7734 12.3305 12.0648 12.0391 12.4238 12.0391H16.9824Z" fill="#1EB576"/>
<path id="Vector 903 (Stroke)" d="M3.24219 16.9844V14.7559C3.24219 12.74 4.87674 11.1055 6.89258 11.1055H8.24023V7.98535C8.24045 5.96969 9.87433 4.3362 11.8896 4.33594H17.4688C19.4846 4.33594 21.1191 5.97049 21.1191 7.98633V16.9844C21.1189 19 19.4844 20.6338 17.4688 20.6338H6.89258C4.87689 20.6338 3.24243 19 3.24219 16.9844ZM4.54297 16.9844C4.54321 18.282 5.59486 19.334 6.89258 19.334H7.26758C7.43094 19.3013 7.68137 19.209 7.88477 19.0352C8.08306 18.8656 8.24011 18.6215 8.24023 18.2344V12.4053H6.89258C5.59471 12.4053 4.54297 13.458 4.54297 14.7559V16.9844ZM9.54004 18.2344C9.53997 18.6622 9.43903 19.0274 9.2793 19.334H17.4688C18.7665 19.334 19.8191 18.282 19.8193 16.9844V7.98633C19.8193 6.68846 18.7666 5.63672 17.4688 5.63672H11.8896C10.592 5.63698 9.54025 6.68799 9.54004 7.98535V18.2344Z" fill="#1EB576"/>
</g>
</svg>
