<svg width="47" height="46" viewBox="0 0 47 46" fill="none" xmlns="http://www.w3.org/2000/svg">
<g id="Group 48600">
<circle id="Ellipse 1506" cx="23.1797" cy="23" r="23" fill="#1F1F1F"/>
<g id="Frame">
<path id="Vector" d="M31.7862 14.0664H14.5949C14.2388 14.0664 13.897 14.2063 13.6432 14.456C13.3894 14.7058 13.244 15.0453 13.2383 15.4013V26.58C13.2383 26.9398 13.3812 27.2848 13.6356 27.5393C13.89 27.7937 14.2351 27.9366 14.5949 27.9366H22.3548V30.1072H16.2799C16.041 30.1072 15.8119 30.2021 15.643 30.3711C15.474 30.54 15.3791 30.7691 15.3791 31.008C15.3791 31.2479 15.4737 31.4782 15.6423 31.6489C15.8109 31.8195 16.04 31.9168 16.2799 31.9197H30.2422C30.4831 31.9169 30.7134 31.8199 30.8838 31.6496C31.0541 31.4792 31.1511 31.2489 31.1539 31.008C31.151 30.7681 31.0537 30.539 30.8831 30.3704C30.7124 30.2018 30.4822 30.1072 30.2422 30.1072H24.1673V27.9366H31.7644C32.1243 27.9366 32.4693 27.7937 32.7237 27.5393C32.9782 27.2848 33.1211 26.9398 33.1211 26.58V15.4013C33.1155 15.049 32.973 14.7127 32.7239 14.4636C32.4748 14.2144 32.1385 14.072 31.7862 14.0664ZM31.3303 26.1242H15.0507V15.8789H31.3303V26.1242Z" fill="white"/>
<path id="Vector_2" d="M18.2407 23.7296C18.4221 23.7315 18.5999 23.6785 18.7508 23.5776L21.9307 21.4613L23.7866 23.0024C23.9498 23.1423 24.1577 23.2192 24.3727 23.2192C24.5876 23.2192 24.7955 23.1423 24.9587 23.0024L28.7139 19.8225C28.8687 19.6744 28.965 19.4754 28.9849 19.2621C29.0048 19.0488 28.9471 18.8354 28.8224 18.6612C28.75 18.5635 28.6585 18.4815 28.5535 18.4201C28.4485 18.3587 28.3321 18.3192 28.2114 18.3039C28.0907 18.2887 27.9682 18.2981 27.8513 18.3315C27.7343 18.365 27.6253 18.4217 27.5309 18.4984L24.3835 21.1791L22.5819 19.638C22.4328 19.5104 22.2461 19.435 22.0502 19.4232C21.8543 19.4115 21.6599 19.464 21.4966 19.5729L17.7632 22.0691C17.605 22.1788 17.4856 22.3357 17.4221 22.5175C17.3586 22.6992 17.3543 22.8963 17.4097 23.0806C17.4651 23.265 17.5775 23.427 17.7306 23.5436C17.8838 23.6602 18.07 23.7253 18.2624 23.7296H18.2407Z" fill="#0CAF60"/>
</g>
</g>
</svg>
