<svg width="32" height="32" viewBox="0 0 32 32" fill="none" xmlns="http://www.w3.org/2000/svg">
  <!-- 深灰圆底 -->
  <circle cx="16" cy="16" r="16" fill="#1F1F1F"/>

  <!-- 内容：正确居中 -->
  <g transform="translate(7.2 7.2) scale(0.55)">
    <!-- 白色主体 -->
    <path fill-rule="evenodd" clip-rule="evenodd"
      d="M22.17 8.01636L21.5206 5.89779C21.4305 5.60419 21.2316 5.36304 20.9601 5.21941C20.6887 5.07578 20.3775 5.04621 20.0839 5.13703L10.7532 8.01636H22.17ZM5.27923 8.06521C5.32623 8.03923 5.37659 8.01766 5.42995 8.00122L19.6175 3.62327C20.3159 3.40782 21.0563 3.47752 21.7022 3.81971C22.3482 4.16189 22.8217 4.73501 23.0361 5.4338L23.8277 8.01636H24.169C25.9071 8.01636 27.3212 9.4305 27.3212 11.1685V12.9326C27.3212 13.3702 26.9667 13.7247 26.5291 13.7247C26.0915 13.7247 25.737 13.3702 25.737 12.9326V11.1685C25.737 10.3039 25.0336 9.60053 24.169 9.60053H5.8338C4.96919 9.60053 4.26582 10.3039 4.26582 11.1685V24.5564C4.26582 25.421 4.96919 26.1244 5.8338 26.1244H24.169C25.0336 26.1244 25.737 25.421 25.737 24.5564V22.905C25.737 22.4674 26.0915 22.1129 26.5291 22.1129C26.9667 22.1129 27.3212 22.4674 27.3212 22.905V24.5564C27.3212 26.2944 25.9071 27.7086 24.169 27.7086H5.8338C4.09578 27.7086 2.68164 26.2944 2.68164 24.5564V11.1685C2.68164 9.61966 3.80471 8.32801 5.27923 8.06521ZM7.49326 23.1958C7.05568 23.1958 6.70117 22.8413 6.70117 22.4037V13.3211C6.70117 12.8836 7.05568 12.5291 7.49326 12.5291C7.93084 12.5291 8.28535 12.8836 8.28535 13.3211V22.4037C8.28535 22.8413 7.93084 23.1958 7.49326 23.1958Z"
      fill="#FFFFFF"
    />

    <!-- 绿色强调 -->
    <path
      d="M28.3794 15.4368H24.4831C24.3963 15.4368 24.3131 15.4024 24.2518 15.341C24.1905 15.2797 24.156 15.1965 24.156 15.1098V14.1054C24.156 13.363 23.258 12.9912 22.7334 13.5165L19.338 16.9157C18.8431 17.4114 18.8431 18.2144 19.338 18.7101L22.7334 22.1094C23.2583 22.6346 24.156 22.2632 24.156 21.5204V20.516C24.156 20.4293 24.1905 20.3461 24.2518 20.2848C24.3131 20.2235 24.3963 20.189 24.4831 20.189H28.3794C28.8987 20.189 29.3197 19.768 29.3197 19.2487V16.3768C29.3197 15.8575 28.8987 15.4368 28.3794 15.4368Z"
      fill="#0CAF60"
    />
  </g>
</svg>