<svg width="32" height="32" viewBox="0 0 32 32" fill="none" xmlns="http://www.w3.org/2000/svg">
<g id="Frame">
<g id="Group 37558">
<g id="Union">
<path fill-rule="evenodd" clip-rule="evenodd" d="M22.17 8.01624L21.5206 5.89767C21.4305 5.60407 21.2316 5.36292 20.9601 5.21929C20.6887 5.07566 20.3775 5.04609 20.0839 5.13691L10.7532 8.01624H22.17ZM5.27923 8.06508C5.32623 8.0391 5.37659 8.01754 5.42995 8.0011L19.6175 3.62315C20.3159 3.4077 21.0563 3.4774 21.7022 3.81958C22.3482 4.16176 22.8217 4.73488 23.0361 5.43368L23.8277 8.01624H24.169C25.9071 8.01624 27.3212 9.43038 27.3212 11.1684V12.9325C27.3212 13.37 26.9667 13.7245 26.5291 13.7245C26.0915 13.7245 25.737 13.37 25.737 12.9325V11.1684C25.737 10.3038 25.0336 9.60041 24.169 9.60041H5.8338C4.96919 9.60041 4.26582 10.3038 4.26582 11.1684V24.5563C4.26582 25.4209 4.96919 26.1243 5.8338 26.1243H24.169C25.0336 26.1243 25.737 25.4209 25.737 24.5563V22.9049C25.737 22.4673 26.0915 22.1128 26.5291 22.1128C26.9667 22.1128 27.3212 22.4673 27.3212 22.9049V24.5563C27.3212 26.2943 25.9071 27.7084 24.169 27.7084H5.8338C4.09578 27.7084 2.68164 26.2943 2.68164 24.5563V11.1684C2.68164 9.61954 3.80471 8.32789 5.27923 8.06508ZM7.49326 23.1957C7.05568 23.1957 6.70117 22.8412 6.70117 22.4036V13.321C6.70117 12.8834 7.05568 12.5289 7.49326 12.5289C7.93084 12.5289 8.28535 12.8834 8.28535 13.321V22.4036C8.28535 22.8412 7.93084 23.1957 7.49326 23.1957Z" fill="white"/>
<path d="M22.17 8.01624V8.16624H22.3728L22.3134 7.97228L22.17 8.01624ZM21.5206 5.89767L21.664 5.85371L21.664 5.85365L21.5206 5.89767ZM20.0839 5.13691L20.1282 5.28024L20.1283 5.28021L20.0839 5.13691ZM10.7532 8.01624L10.709 7.8729L10.7532 8.16624V8.01624ZM5.27923 8.06508L5.30555 8.21276L5.33004 8.20839L5.3518 8.19636L5.27923 8.06508ZM5.42995 8.0011L5.47412 8.14445L5.47418 8.14443L5.42995 8.0011ZM19.6175 3.62315L19.5733 3.47981L19.5732 3.47981L19.6175 3.62315ZM21.7022 3.81958L21.7725 3.68703L21.7022 3.81958ZM23.0361 5.43368L23.1795 5.38972L23.1795 5.38969L23.0361 5.43368ZM23.8277 8.01624L23.6843 8.06019L23.7168 8.16624H23.8277V8.01624ZM22.3134 7.97228L21.664 5.85371L21.3772 5.94163L22.0266 8.06019L22.3134 7.97228ZM21.664 5.85365C21.5622 5.52212 21.3371 5.24904 21.0303 5.08671L20.89 5.35187C21.1261 5.47681 21.2987 5.68602 21.3772 5.94168L21.664 5.85365ZM21.0303 5.08671C20.7238 4.9245 20.3714 4.89097 20.0396 4.99361L20.1283 5.28021C20.3836 5.20121 20.6537 5.22681 20.89 5.35187L21.0303 5.08671ZM20.0397 4.99358L10.709 7.8729L10.7974 8.15957L20.1282 5.28024L20.0397 4.99358ZM22.17 7.86624H10.7532V8.16624H22.17V7.86624ZM5.3518 8.19636C5.38982 8.17534 5.43067 8.15784 5.47412 8.14445L5.38579 7.85775C5.32251 7.87724 5.26263 7.90286 5.20666 7.93381L5.3518 8.19636ZM5.47418 8.14443L19.6617 3.76648L19.5732 3.47981L5.38572 7.85777L5.47418 8.14443ZM19.6617 3.76648C20.3221 3.56277 21.0212 3.6286 21.632 3.95214L21.7725 3.68703C21.0913 3.3262 20.3098 3.25262 19.5733 3.47981L19.6617 3.76648ZM21.632 3.95214C22.2428 4.27567 22.69 4.81692 22.8927 5.47768L23.1795 5.38969C22.9535 4.65284 22.4537 4.04786 21.7725 3.68703L21.632 3.95214ZM22.8927 5.47764L23.6843 8.06019L23.9711 7.97228L23.1795 5.38972L22.8927 5.47764ZM24.169 7.86624H23.8277V8.16624H24.169V7.86624ZM27.4712 11.1684C27.4712 9.34753 25.9899 7.86624 24.169 7.86624V8.16624C25.8242 8.16624 27.1712 9.51322 27.1712 11.1684H27.4712ZM27.4712 12.9325V11.1684H27.1712V12.9325H27.4712ZM26.5291 13.8745C27.0495 13.8745 27.4712 13.4529 27.4712 12.9325H27.1712C27.1712 13.2872 26.8838 13.5745 26.5291 13.5745V13.8745ZM25.587 12.9325C25.587 13.4529 26.0087 13.8745 26.5291 13.8745V13.5745C26.1744 13.5745 25.887 13.2872 25.887 12.9325H25.587ZM25.587 11.1684V12.9325H25.887V11.1684H25.587ZM24.169 9.75041C24.9508 9.75041 25.587 10.3866 25.587 11.1684H25.887C25.887 10.2209 25.1165 9.45041 24.169 9.45041V9.75041ZM5.8338 9.75041H24.169V9.45041H5.8338V9.75041ZM4.41582 11.1684C4.41582 10.3866 5.05203 9.75041 5.8338 9.75041V9.45041C4.88635 9.45041 4.11582 10.2209 4.11582 11.1684H4.41582ZM4.41582 24.5563V11.1684H4.11582V24.5563H4.41582ZM5.8338 25.9743C5.05203 25.9743 4.41582 25.3381 4.41582 24.5563H4.11582C4.11582 25.5037 4.88635 26.2743 5.8338 26.2743V25.9743ZM24.169 25.9743H5.8338V26.2743H24.169V25.9743ZM25.587 24.5563C25.587 25.3381 24.9508 25.9743 24.169 25.9743V26.2743C25.1165 26.2743 25.887 25.5037 25.887 24.5563H25.587ZM25.587 22.9049V24.5563H25.887V22.9049H25.587ZM26.5291 21.9628C26.0087 21.9628 25.587 22.3844 25.587 22.9049H25.887C25.887 22.5501 26.1744 22.2628 26.5291 22.2628V21.9628ZM27.4712 22.9049C27.4712 22.3844 27.0495 21.9628 26.5291 21.9628V22.2628C26.8838 22.2628 27.1712 22.5501 27.1712 22.9049H27.4712ZM27.4712 24.5563V22.9049H27.1712V24.5563H27.4712ZM24.169 27.8584C25.9899 27.8584 27.4712 26.3771 27.4712 24.5563H27.1712C27.1712 26.2115 25.8242 27.5584 24.169 27.5584V27.8584ZM5.8338 27.8584H24.169V27.5584H5.8338V27.8584ZM2.53164 24.5563C2.53164 26.3771 4.01294 27.8584 5.8338 27.8584V27.5584C4.17862 27.5584 2.83164 26.2115 2.83164 24.5563H2.53164ZM2.53164 11.1684V24.5563H2.83164V11.1684H2.53164ZM5.25291 7.91741C3.70819 8.19273 2.53164 9.54547 2.53164 11.1684H2.83164C2.83164 9.6936 3.90123 8.46305 5.30555 8.21276L5.25291 7.91741ZM6.55117 22.4036C6.55117 22.924 6.97283 23.3457 7.49326 23.3457V23.0457C7.13852 23.0457 6.85117 22.7584 6.85117 22.4036H6.55117ZM6.55117 13.321V22.4036H6.85117V13.321H6.55117ZM7.49326 12.3789C6.97283 12.3789 6.55117 12.8006 6.55117 13.321H6.85117C6.85117 12.9663 7.13852 12.6789 7.49326 12.6789V12.3789ZM8.43535 13.321C8.43535 12.8006 8.01369 12.3789 7.49326 12.3789V12.6789C7.848 12.6789 8.13535 12.9663 8.13535 13.321H8.43535ZM8.43535 22.4036V13.321H8.13535V22.4036H8.43535ZM7.49326 23.3457C8.01369 23.3457 8.43535 22.924 8.43535 22.4036H8.13535C8.13535 22.7584 7.848 23.0457 7.49326 23.0457V23.3457Z" fill="white"/>
</g>
<path id="Vector" d="M28.3794 15.4366H24.4831C24.3963 15.4366 24.3131 15.4021 24.2518 15.3408C24.1905 15.2795 24.156 15.1963 24.156 15.1095V14.1052C24.156 13.3627 23.258 12.991 22.7334 13.5162L19.338 16.9155C18.8431 17.4112 18.8431 18.2142 19.338 18.7098L22.7334 22.1091C23.2583 22.6344 24.156 22.263 24.156 21.5202V20.5158C24.156 20.4291 24.1905 20.3459 24.2518 20.2845C24.3131 20.2232 24.3963 20.1888 24.4831 20.1888H28.3794C28.8987 20.1888 29.3197 19.7677 29.3197 19.2485V16.3765C29.3197 15.8573 28.8987 15.4366 28.3794 15.4366Z" fill="#0CAF60"/>
</g>
</g>
</svg>
