<svg width="47" height="46" viewBox="0 0 47 46" fill="none" xmlns="http://www.w3.org/2000/svg">
<g id="Group 48601">
<circle id="Ellipse 1503" cx="23.6797" cy="23" r="23" fill="#1F1F1F"/>
<g id="Frame">
<path id="Vector" d="M28.3657 29.2483C28.3657 27.8103 29.5315 26.6445 30.9695 26.6445C32.4075 26.6445 33.5732 27.8103 33.5732 29.2483H34.1147C34.3909 29.2483 34.6147 29.4721 34.6147 29.7483V33.4351C34.6147 33.7112 34.3909 33.9351 34.1147 33.9351H27.8242C27.5481 33.9351 27.3242 33.7112 27.3242 33.4351V29.7483C27.3242 29.4721 27.5481 29.2483 27.8242 29.2483H28.3657ZM29.928 29.2483H32.011C32.011 28.6731 31.5447 28.2068 30.9695 28.2068C30.3943 28.2068 29.928 28.6731 29.928 29.2483ZM28.8865 30.8105V32.3728H33.0525V30.8105H28.8865Z" fill="#0CAF60"/>
<g id="Vector_2">
<path d="M33.8856 25.0823H32.2853C32.4464 24.4143 32.5317 23.7167 32.5317 22.9993C32.5317 18.11 28.5682 14.1465 23.679 14.1465C18.7897 14.1465 14.8262 18.11 14.8262 22.9993C14.8262 27.8885 18.7897 31.8521 23.679 31.8521C24.3964 31.8521 25.094 31.7667 25.762 31.6056V33.206C25.0889 33.3426 24.3923 33.4143 23.679 33.4143C17.9269 33.4143 13.2639 28.7513 13.2639 22.9993C13.2639 17.2472 17.9269 12.5842 23.679 12.5842C29.431 12.5842 34.094 17.2472 34.094 22.9993C34.094 23.7126 34.0223 24.4092 33.8856 25.0823ZM23.3254 18.9341C23.5207 18.7388 23.8372 18.7388 24.0325 18.9341L27.7441 22.6457C27.9394 22.841 27.9394 23.1576 27.7441 23.3528L24.0325 27.0644C23.8372 27.2597 23.5207 27.2597 23.3254 27.0644L19.6138 23.3528C19.4185 23.1576 19.4185 22.841 19.6138 22.6457L23.3254 18.9341ZM21.4696 22.9993L23.679 25.2086L25.8883 22.9993L23.679 20.7899L21.4696 22.9993Z" fill="white"/>
<path d="M27.8914 22.6453C28.0867 22.8406 28.0867 23.1572 27.8914 23.3525L24.0321 27.2117C23.8369 27.407 23.5203 27.407 23.325 27.2117L19.4666 23.3524C19.2714 23.1571 19.2714 22.8406 19.4666 22.6453L23.325 18.7869C23.5203 18.5917 23.8368 18.5917 24.0321 18.7869L27.8914 22.6453ZM19.6138 22.6457C19.4185 22.841 19.4185 23.1576 19.6138 23.3528L23.3254 27.0644C23.5207 27.2597 23.8372 27.2597 24.0325 27.0644L27.7441 23.3528C27.9394 23.1576 27.9394 22.841 27.7441 22.6457L24.0325 18.9341C23.8372 18.7388 23.5207 18.7388 23.3254 18.9341L19.6138 22.6457ZM25.8883 22.9993L23.679 25.2086L21.4696 22.9993L23.679 20.7899L25.8883 22.9993ZM32.4279 22.9989C32.4277 18.1673 28.5101 14.2505 23.6785 14.2505C18.8471 14.2507 14.9304 18.1675 14.9302 22.9989C14.9302 27.8305 18.847 31.748 23.6785 31.7483L23.679 31.8521L23.2238 31.8408C18.6969 31.6116 15.067 27.9815 14.8376 23.4546L14.8262 22.9993C14.8262 18.11 18.7897 14.1465 23.679 14.1465L24.1343 14.1579C28.8118 14.3949 32.5315 18.2629 32.5317 22.9993L32.5276 23.2674C32.5091 23.8907 32.4262 24.4978 32.2853 25.0823H33.8856L33.9762 24.5736C34.0281 24.2312 34.0633 23.8833 34.081 23.5309L34.094 22.9993C34.0938 17.427 29.7176 12.8762 24.2146 12.5975L23.679 12.5842C17.9269 12.5842 13.2639 17.2472 13.2639 22.9993L13.2771 23.535C13.547 28.8607 17.8177 33.1305 23.1435 33.4003L23.679 33.4143C24.3923 33.4143 25.0889 33.3426 25.762 33.206V31.6056C25.094 31.7667 24.3964 31.8521 23.679 31.8521L23.6785 31.7483C24.3877 31.7483 25.0774 31.6633 25.7375 31.5041L25.8656 31.4736V33.2914L25.7822 33.3077C25.1025 33.4456 24.3988 33.5183 23.6785 33.5183C17.8691 33.5181 13.1602 28.8083 13.1602 22.9989C13.1604 17.1896 17.8693 12.4807 23.6785 12.4805C29.488 12.4805 34.1977 17.1894 34.198 22.9989C34.198 23.7191 34.1253 24.4228 33.9874 25.1025L33.9711 25.186H32.1533L32.1838 25.0578L32.2896 24.5573C32.3804 24.0518 32.4279 23.5307 32.4279 22.9989ZM21.6166 22.9989L23.6785 25.0608L25.7405 22.9989L23.6785 20.9369L21.6166 22.9989Z" fill="white"/>
</g>
</g>
</g>
</svg>
