<svg width="20" height="21" viewBox="0 0 20 21" fill="none" xmlns="http://www.w3.org/2000/svg">
<g id="Frame">
<path id="Vector" d="M17.3417 6.83333H3.04167C2.66667 6.83333 2.35834 6.53333 2.35834 6.16667C2.35834 5.8 2.66667 5.5 3.04167 5.5H17.3417C17.7167 5.5 18.025 5.8 18.025 6.16667C18.025 6.53333 17.7167 6.83333 17.3417 6.83333Z" fill="#909090"/>
<path id="Vector_2" d="M8.39166 5.98333C8.375 5.88333 8.36667 5.775 8.36667 5.66667C8.36667 4.65833 9.19166 3.83333 10.2 3.83333C11.2083 3.83333 12.0333 4.65833 12.0333 5.66667C12.0333 5.775 12.025 5.875 12.0083 5.98333H13.35C13.3583 5.88333 13.3667 5.775 13.3667 5.66667C13.3667 3.91667 11.95 2.5 10.2 2.5C8.45 2.5 7.03333 3.91667 7.03333 5.66667C7.03333 5.775 7.04167 5.875 7.05 5.98333H8.39166ZM14.8583 6.14167V17.1667H5.525V6.14167H4.19167V17.4583C4.19167 18.0333 4.65833 18.5 5.23333 18.5H15.15C15.725 18.5 16.1917 18.0333 16.1917 17.4583V6.14167H14.8583Z" fill="#909090"/>
<path id="Vector_3" d="M7.86667 14.9834H7.85C7.48333 14.9834 7.19167 14.6917 7.19167 14.3251V9.64173C7.19167 9.27507 7.48333 8.9834 7.85 8.9834H7.86667C8.23333 8.9834 8.525 9.27507 8.525 9.64173V14.3334C8.525 14.6917 8.23333 14.9834 7.86667 14.9834ZM10.2 14.9834H10.1833C9.81667 14.9834 9.525 14.6917 9.525 14.3251V9.64173C9.525 9.27507 9.81667 8.9834 10.1833 8.9834H10.2C10.5667 8.9834 10.8583 9.27507 10.8583 9.64173V14.3334C10.8583 14.6917 10.5667 14.9834 10.2 14.9834ZM12.5333 14.9834H12.5167C12.15 14.9834 11.8583 14.6917 11.8583 14.3251V9.64173C11.8583 9.27507 12.15 8.9834 12.5167 8.9834H12.5333C12.9 8.9834 13.1917 9.27507 13.1917 9.64173V14.3334C13.1917 14.6917 12.9 14.9834 12.5333 14.9834Z" fill="#909090"/>
</g>
</svg>
