<svg width="47" height="46" viewBox="0 0 47 46" fill="none" xmlns="http://www.w3.org/2000/svg">
<g id="Group 48602">
<circle id="Ellipse 1505" cx="23.6797" cy="23" r="23" fill="#1F1F1F"/>
<g id="Frame">
<path id="Vector" d="M23.5646 12.3555C17.7392 12.3555 13.0352 17.1325 13.0352 22.9993H14.9709C14.9709 18.1792 18.829 14.2912 23.5646 14.2912C26.1936 14.2912 28.5506 15.4871 30.1297 17.3797L29.5724 17.7015C29.4949 17.7462 29.4314 17.8115 29.3887 17.8901C29.3461 17.9687 29.3261 18.0577 29.3309 18.147C29.3357 18.2363 29.3651 18.3225 29.416 18.3961C29.4668 18.4698 29.537 18.5278 29.6188 18.564L32.3308 19.7649C32.3996 19.7951 32.4745 19.8089 32.5495 19.8053C32.6246 19.8016 32.6978 19.7805 32.7633 19.7436C32.8287 19.7068 32.8848 19.6552 32.9269 19.593C32.969 19.5307 32.9961 19.4595 33.0059 19.385L33.4057 16.3878C33.417 16.2984 33.4032 16.2076 33.3657 16.1257C33.3283 16.0437 33.2688 15.9738 33.1938 15.9239C33.1189 15.8739 33.0315 15.8458 32.9414 15.8428C32.8514 15.8398 32.7623 15.8619 32.6841 15.9067L31.8266 16.401C30.8482 15.1419 29.5951 14.123 28.163 13.4219C26.7308 12.7207 25.1575 12.356 23.5629 12.3555H23.5646ZM34.3229 22.9993C34.3229 28.8662 29.6205 33.6432 23.7935 33.6432C22.1995 33.6422 20.6268 33.2772 19.1953 32.5761C17.7638 31.875 16.5112 30.8563 15.5332 29.5977L14.674 30.0953C14.5956 30.1404 14.5061 30.1626 14.4157 30.1595C14.3253 30.1564 14.2376 30.128 14.1625 30.0776C14.0874 30.0272 14.0279 29.9567 13.9908 29.8743C13.9537 29.7918 13.9404 29.7006 13.9524 29.6109L14.3522 26.6137C14.3622 26.5391 14.3894 26.4679 14.4317 26.4057C14.474 26.3435 14.5303 26.292 14.5959 26.2553C14.6616 26.2186 14.7349 26.1977 14.8101 26.1942C14.8852 26.1908 14.9602 26.2049 15.0289 26.2355L17.7409 27.4364C18.1025 27.5956 18.129 28.0999 17.7873 28.2972L17.2284 28.619C18.0285 29.585 19.0318 30.3627 20.1669 30.8965C21.302 31.4304 22.5408 31.7073 23.7951 31.7075C28.5307 31.7075 32.3889 27.8195 32.3889 22.9993H34.3246H34.3229Z" fill="white"/>
<path id="Vector_2" d="M22.2507 22.9978L20.1077 25.1408C19.7132 25.5353 19.0737 25.5353 18.6792 25.1408V25.1408C18.2847 24.7463 18.2847 24.1067 18.6793 23.7122L21.7926 20.5997C22.0462 20.3461 22.4572 20.3461 22.7109 20.5996L25.1099 22.9978L27.2538 20.8547C27.6484 20.4603 28.2879 20.4604 28.6824 20.8548V20.8548C29.0769 21.2494 29.0769 21.8891 28.6823 22.2836L25.6688 25.2963C25.3601 25.605 24.8597 25.605 24.5509 25.2965L22.2507 22.9978Z" fill="#0CAF60"/>
</g>
</g>
</svg>
