<svg width="22" height="22" viewBox="0 0 22 22" fill="none" xmlns="http://www.w3.org/2000/svg">
<g id="Frame">
<path id="Union" fill-rule="evenodd" clip-rule="evenodd" d="M11.3374 19.3172C10.9903 19.3172 10.6484 19.1933 10.3707 18.954L6.44835 15.5753H3.88471C2.79303 15.5753 1.9043 14.6866 1.9043 13.5949V8.4655C1.9043 7.37381 2.79303 6.48508 3.88471 6.48508H6.54449L10.3472 3.0669C10.7905 2.66846 11.4037 2.57233 11.9484 2.8148C12.4921 3.05728 12.8307 3.57856 12.8307 4.1746V17.8281C12.8307 18.4167 12.4985 18.9358 11.9623 19.1804C11.7604 19.2723 11.5479 19.3172 11.3374 19.3172ZM3.88471 7.76797C3.50016 7.76797 3.18612 8.08095 3.18612 8.46657V13.5971C3.18612 13.9816 3.4991 14.2956 3.88471 14.2956H6.52526C6.78269 14.2956 7.03158 14.3886 7.22706 14.5563L11.2071 17.9851C11.2947 18.061 11.3823 18.0364 11.4282 18.0161C11.4742 17.9958 11.5489 17.9435 11.5489 17.8292V4.17353C11.5489 4.0571 11.472 4.00583 11.4261 3.98553C11.3802 3.96524 11.2904 3.94281 11.2039 4.02078L7.34135 7.49238C7.14395 7.66982 6.88789 7.76798 6.62246 7.76797H3.88471ZM14.6671 14.9387C14.5671 14.9387 14.4684 14.9153 14.3791 14.8705C14.2897 14.8256 14.212 14.7604 14.1522 14.6802C14.102 14.6127 14.0656 14.536 14.045 14.4544C14.0245 14.3727 14.0203 14.2879 14.0326 14.2046C14.0449 14.1214 14.0735 14.0414 14.1167 13.9692C14.16 13.897 14.2171 13.8341 14.2847 13.784C15.1798 13.1196 15.6936 12.0995 15.6936 10.9854C15.6936 9.89262 15.1959 8.88426 14.3264 8.21878C14.2595 8.16762 14.2034 8.10379 14.1613 8.03094C14.1192 7.95808 14.0918 7.87763 14.0808 7.79419C14.0698 7.71075 14.0753 7.62596 14.0971 7.54467C14.1189 7.46338 14.1565 7.38718 14.2078 7.32043C14.2589 7.2536 14.3228 7.19751 14.3956 7.15537C14.4685 7.11323 14.5489 7.08588 14.6324 7.07486C14.7158 7.06385 14.8006 7.0694 14.8819 7.09119C14.9632 7.11298 15.0394 7.15059 15.1061 7.20187C16.294 8.11196 16.9755 9.49098 16.9755 10.9864C16.9755 12.4872 16.2555 13.9186 15.0485 14.8148C14.9377 14.8954 14.8041 14.9388 14.6671 14.9387ZM16.5391 17.0241C16.6468 17.0991 16.7748 17.1392 16.906 17.1392C17.0534 17.1392 17.2008 17.0889 17.3205 16.9864C19.0819 15.4845 20.0924 13.2969 20.0924 10.9843C20.0924 8.66952 19.0808 6.48188 17.3183 4.98002C17.1889 4.86986 17.0209 4.81562 16.8515 4.82925C16.682 4.84287 16.5249 4.92322 16.4147 5.05265C16.185 5.32184 16.2181 5.72668 16.4873 5.95634C17.9635 7.21359 18.8106 9.04659 18.8106 10.9843C18.8111 11.9402 18.6037 12.8847 18.2029 13.7525C17.8021 14.6203 17.2175 15.3906 16.4894 16.0101C16.3896 16.0952 16.3183 16.2089 16.2852 16.3358C16.252 16.4628 16.2586 16.5968 16.304 16.7199C16.3494 16.843 16.4315 16.9491 16.5391 17.0241Z" fill="white"/>
</g>
</svg>
