<svg width="47" height="46" viewBox="0 0 47 46" fill="none" xmlns="http://www.w3.org/2000/svg">
<g id="Group 48599">
<circle id="Ellipse 1507" cx="23.6797" cy="23" r="23" fill="#1F1F1F"/>
<g id="Frame">
<path id="Vector" d="M30.5159 14.3438H16.8469C16.37 14.3434 15.9105 14.523 15.5602 14.8467C15.2099 15.1703 14.9945 15.6142 14.9572 16.0897L14.0804 27.2874L14.0781 27.3799C14.0781 27.8822 14.2777 28.364 14.6329 28.7192C14.9881 29.0745 15.4699 29.274 15.9723 29.274H31.444L31.5365 29.2685C31.7845 29.249 32.0263 29.1809 32.248 29.068C32.4697 28.9552 32.667 28.7997 32.8286 28.6106C32.9902 28.4214 33.113 28.2023 33.1899 27.9657C33.2668 27.7291 33.2964 27.4797 33.2769 27.2317L32.4034 16.0897C32.3661 15.6146 32.1511 15.171 31.8013 14.8474C31.4514 14.5238 30.9925 14.344 30.5159 14.3438ZM16.8469 15.9036H30.5159C30.6003 15.9034 30.6817 15.9351 30.7436 15.9923C30.8056 16.0495 30.8437 16.1281 30.8502 16.2123L31.7237 27.3543C31.7305 27.4426 31.7019 27.53 31.6442 27.5973C31.5865 27.6646 31.5045 27.7062 31.4162 27.713L15.9734 27.7141C15.8979 27.7144 15.8245 27.6891 15.7653 27.6424C15.706 27.5956 15.6643 27.5302 15.6469 27.4568L15.6391 27.3676L16.5138 16.2123C16.5202 16.1283 16.5581 16.0499 16.6199 15.9927C16.6816 15.9355 16.7627 15.9037 16.8469 15.9036ZM16.8614 31.0679C21.2201 30.3024 25.7627 30.3024 30.4869 31.0668C30.588 31.0832 30.6849 31.1193 30.7721 31.1731C30.8592 31.227 30.9349 31.2974 30.9948 31.3805C31.0547 31.4636 31.0977 31.5577 31.1212 31.6573C31.1448 31.757 31.1485 31.8604 31.1321 31.9615C31.1157 32.0626 31.0795 32.1595 31.0257 32.2466C30.9719 32.3337 30.9014 32.4094 30.8183 32.4693C30.7352 32.5292 30.6412 32.5722 30.5415 32.5957C30.4418 32.6193 30.3385 32.623 30.2374 32.6066C25.6825 31.869 21.3149 31.869 17.131 32.6044C16.931 32.6321 16.7279 32.5811 16.5647 32.4622C16.4014 32.3433 16.2907 32.1657 16.2557 31.9667C16.2208 31.7678 16.2644 31.5631 16.3774 31.3956C16.4903 31.2282 16.6638 31.1111 16.8614 31.069V31.0679Z" fill="white"/>
<g id="OTC">
<path id="Vector_2" d="M27.6197 25.0388C27.2891 25.0388 26.9868 24.9554 26.7127 24.7886C26.4417 24.6218 26.2258 24.3984 26.0649 24.1184C25.9071 23.8355 25.8281 23.5212 25.8281 23.1757L25.8371 21.0868C25.8371 20.7473 25.9145 20.4405 26.0694 20.1665C26.2243 19.8895 26.4372 19.6676 26.7083 19.5008C26.9823 19.331 27.2861 19.2461 27.6197 19.2461C27.9593 19.2461 28.2616 19.328 28.5267 19.4918C28.7947 19.6556 29.0077 19.8775 29.1656 20.1575C29.3264 20.4345 29.4068 20.7443 29.4068 21.0868V21.5068C29.4068 21.5306 29.3949 21.5425 29.3711 21.5425H28.3435C28.3197 21.5425 28.3078 21.5306 28.3078 21.5068V21.0868C28.3078 20.8843 28.2422 20.71 28.1112 20.5641C27.9801 20.4181 27.8163 20.3452 27.6197 20.3452C27.4023 20.3452 27.2355 20.4196 27.1193 20.5686C27.0032 20.7175 26.9451 20.8902 26.9451 21.0868V23.1757C26.9451 23.3991 27.0106 23.5823 27.1417 23.7253C27.2727 23.8653 27.4321 23.9353 27.6197 23.9353C27.8163 23.9353 27.9801 23.8578 28.1112 23.7029C28.2422 23.5451 28.3078 23.3693 28.3078 23.1757V22.7513C28.3078 22.7275 28.3197 22.7156 28.3435 22.7156H29.38C29.4039 22.7156 29.4158 22.7275 29.4158 22.7513V23.1757C29.4158 23.5183 29.3353 23.831 29.1745 24.114C29.0107 24.394 28.7947 24.6188 28.5267 24.7886C28.2586 24.9554 27.9563 25.0388 27.6197 25.0388Z" fill="#0CAF60"/>
<path id="Vector_3" d="M24.4148 24.9483H23.3827C23.3559 24.9483 23.3425 24.9334 23.3425 24.9036V20.4512H22.1541C22.1243 20.4512 22.1094 20.4363 22.1094 20.4065L22.1183 19.3834C22.1183 19.3596 22.1302 19.3477 22.1541 19.3477H25.63C25.6628 19.3477 25.6791 19.3596 25.6791 19.3834V20.4065C25.6791 20.4363 25.6672 20.4512 25.6434 20.4512H24.4416L24.4505 24.9036C24.4505 24.9334 24.4386 24.9483 24.4148 24.9483Z" fill="#0CAF60"/>
<path id="Vector_4" d="M20.1599 25.0388C19.8352 25.0388 19.5359 24.9554 19.2619 24.7886C18.9908 24.6218 18.7719 24.3999 18.6051 24.1229C18.4413 23.8429 18.3594 23.5361 18.3594 23.2025L18.3683 21.069C18.3683 20.7294 18.4502 20.4241 18.614 20.1531C18.7749 19.879 18.9923 19.6601 19.2663 19.4963C19.5404 19.3295 19.8382 19.2461 20.1599 19.2461C20.4935 19.2461 20.7928 19.328 21.0579 19.4918C21.326 19.6556 21.5404 19.8761 21.7013 20.1531C21.8651 20.4271 21.947 20.7324 21.947 21.069L21.956 23.2025C21.956 23.5361 21.8755 23.8414 21.7147 24.1184C21.5509 24.3984 21.3334 24.6218 21.0624 24.7886C20.7913 24.9554 20.4905 25.0388 20.1599 25.0388ZM20.1599 23.9353C20.3446 23.9353 20.5054 23.8608 20.6424 23.7119C20.7794 23.56 20.8479 23.3902 20.8479 23.2025L20.839 21.069C20.839 20.8664 20.775 20.6952 20.6469 20.5552C20.5188 20.4152 20.3565 20.3452 20.1599 20.3452C19.9723 20.3452 19.8114 20.4137 19.6774 20.5507C19.5433 20.6877 19.4763 20.8605 19.4763 21.069V23.2025C19.4763 23.4021 19.5433 23.5749 19.6774 23.7208C19.8114 23.8638 19.9723 23.9353 20.1599 23.9353Z" fill="#0CAF60"/>
</g>
</g>
</g>
</svg>
