<svg width="24" height="24" viewBox="0 0 24 24" fill="none" xmlns="http://www.w3.org/2000/svg">
<g id="Frame">
<path id="Vector" d="M10.875 12C10.875 12.2984 10.9935 12.5845 11.2045 12.7955C11.4155 13.0065 11.7016 13.125 12 13.125C12.2984 13.125 12.5845 13.0065 12.7955 12.7955C13.0065 12.5845 13.125 12.2984 13.125 12C13.125 11.7016 13.0065 11.4155 12.7955 11.2045C12.5845 10.9935 12.2984 10.875 12 10.875C11.7016 10.875 11.4155 10.9935 11.2045 11.2045C10.9935 11.4155 10.875 11.7016 10.875 12ZM15.5625 12C15.5625 12.2984 15.681 12.5845 15.892 12.7955C16.103 13.0065 16.3891 13.125 16.6875 13.125C16.9859 13.125 17.272 13.0065 17.483 12.7955C17.694 12.5845 17.8125 12.2984 17.8125 12C17.8125 11.7016 17.694 11.4155 17.483 11.2045C17.272 10.9935 16.9859 10.875 16.6875 10.875C16.3891 10.875 16.103 10.9935 15.892 11.2045C15.681 11.4155 15.5625 11.7016 15.5625 12ZM6.1875 12C6.1875 12.2984 6.30603 12.5845 6.517 12.7955C6.72798 13.0065 7.01413 13.125 7.3125 13.125C7.61087 13.125 7.89702 13.0065 8.108 12.7955C8.31897 12.5845 8.4375 12.2984 8.4375 12C8.4375 11.7016 8.31897 11.4155 8.108 11.2045C7.89702 10.9935 7.61087 10.875 7.3125 10.875C7.01413 10.875 6.72798 10.9935 6.517 11.2045C6.30603 11.4155 6.1875 11.7016 6.1875 12Z" fill="white"/>
<path id="Vector_2" d="M21.6844 7.93125C21.1547 6.67266 20.3953 5.54297 19.4274 4.57266C18.4594 3.60469 17.3297 2.84297 16.0688 2.31563C14.7797 1.77422 13.4109 1.5 12 1.5H11.9531C10.5328 1.50703 9.15704 1.78828 7.86329 2.34141C6.61407 2.87578 5.49376 3.63516 4.53517 4.60312C3.57657 5.57109 2.82423 6.69609 2.30392 7.95C1.76485 9.24844 1.49298 10.6289 1.50001 12.0492C1.50704 13.6758 1.8961 15.2906 2.62501 16.7344V20.2969C2.62501 20.8922 3.10782 21.375 3.70314 21.375H7.26798C8.71173 22.1039 10.3266 22.493 11.9531 22.5H12.0024C13.4063 22.5 14.768 22.2281 16.05 21.6961C17.3039 21.1734 18.4313 20.4234 19.3969 19.4648C20.3649 18.5063 21.1266 17.3859 21.6586 16.1367C22.2117 14.843 22.493 13.4672 22.5 12.0469C22.507 10.6195 22.2305 9.23438 21.6844 7.93125ZM18.143 18.1969C16.5 19.8234 14.3203 20.7188 12 20.7188H11.9602C10.5469 20.7117 9.14298 20.3602 7.90314 19.6992L7.70626 19.5938H4.40626V16.2938L4.30079 16.0969C3.63985 14.857 3.28829 13.4531 3.28126 12.0398C3.27189 9.70312 4.16485 7.50937 5.80314 5.85703C7.43907 4.20469 9.62579 3.29062 11.9625 3.28125H12.0024C13.1742 3.28125 14.3109 3.50859 15.382 3.95859C16.4274 4.39687 17.3649 5.02734 18.1711 5.83359C18.975 6.6375 19.6078 7.57734 20.0461 8.62266C20.5008 9.70547 20.7281 10.8539 20.7234 12.0398C20.7094 14.3742 19.793 16.5609 18.143 18.1969Z" fill="white"/>
</g>
</svg>
