<svg width="47" height="46" viewBox="0 0 47 46" fill="none" xmlns="http://www.w3.org/2000/svg">
  <g id="Group 48599">
    <!-- 外圈深灰圆底（同模板） -->
    <circle id="Ellipse 1507" cx="23.6797" cy="23" r="23" fill="#1F1F1F"/>

    <!-- 内容：按模板居中缩放 -->
    <g id="Frame" transform="translate(8.5 8.6) scale(1.2)">
      <!-- 绿色强调 -->
      <path d="M12.7253 15.6538C10.7131 15.6538 9.08203 14.0227 9.08203 12.0105C9.08203 9.99824 10.7131 8.36719 12.7253 8.36719C14.7373 8.36719 16.3686 9.99824 16.3686 12.0105C16.3686 14.0227 14.7373 15.6538 12.7253 15.6538ZM12.7253 14.2875C13.9829 14.2875 15.0024 13.2681 15.0024 12.0105C15.0024 10.7529 13.9829 9.73342 12.7253 9.73342C11.4677 9.73342 10.4483 10.7529 10.4483 12.0105C10.4483 13.2681 11.4677 14.2875 12.7253 14.2875Z" fill="#0CAF60"/>

      <!-- 白色主体 -->
      <path d="M21.9216 12.8739L18.0287 19.9328C17.8932 20.18 17.6939 20.3863 17.4514 20.5302C17.209 20.6741 16.9324 20.7504 16.6504 20.7509H8.91985C8.63792 20.7504 8.3613 20.6741 8.11886 20.5302C7.87643 20.3863 7.67705 20.18 7.54155 19.9328L3.6487 12.8739C3.51784 12.6363 3.44922 12.3694 3.44922 12.0981C3.44922 11.8268 3.51784 11.56 3.6487 11.3223L7.54155 4.26346C7.67705 4.01622 7.87643 3.80989 8.11886 3.66598C8.3613 3.52207 8.63792 3.44587 8.91985 3.44531H16.6504C16.9324 3.44587 17.209 3.52207 17.4514 3.66598C17.6939 3.80989 17.8932 4.01622 18.0287 4.26346L21.9216 11.3223C22.0524 11.56 22.1211 11.8268 22.1211 12.0981C22.1211 12.3694 22.0524 12.6363 21.9216 12.8739ZM20.7264 12.209C20.745 12.1751 20.7548 12.137 20.7548 12.0982C20.7548 12.0595 20.745 12.0214 20.7264 11.9874L16.8403 4.92858C16.8211 4.89326 16.7927 4.86375 16.7581 4.84316C16.7235 4.82257 16.6841 4.81165 16.6438 4.81154H8.92645C8.88621 4.81165 8.84675 4.82257 8.81218 4.84316C8.77761 4.86375 8.7492 4.89326 8.72994 4.92858L4.84392 11.9874C4.82527 12.0214 4.81549 12.0595 4.81549 12.0982C4.81549 12.137 4.82527 12.1751 4.84392 12.209L8.72994 19.2679C8.74923 19.3031 8.77765 19.3326 8.81222 19.3532C8.84678 19.3737 8.88624 19.3846 8.92645 19.3847H16.6438C16.684 19.3846 16.7235 19.3737 16.7581 19.3532C16.7926 19.3326 16.8211 19.3031 16.8403 19.2679L20.7264 12.209Z" fill="#FFFFFF"/>
    </g>
  </g>
</svg>