<svg width="32" height="32" viewBox="0 0 32 32" fill="none" xmlns="http://www.w3.org/2000/svg">
<g id="Frame">
<path id="Vector" d="M27.5451 19.7022V23.3923C27.5422 24.493 27.1029 25.5475 26.3236 26.3248C25.5443 27.102 24.4886 27.5385 23.388 27.5385H6.63633C5.53569 27.5385 4.47996 27.102 3.70066 26.3248C2.92136 25.5475 2.4821 24.493 2.47919 23.3923V20.9621C2.47919 20.4499 2.89443 20.0346 3.40666 20.0346C3.91889 20.0346 4.33413 20.4499 4.33413 20.9621V22.7484C4.33413 24.7165 5.29347 25.6736 7.2671 25.6736H22.7122C24.6858 25.6736 25.6462 24.7165 25.6462 22.7484V19.8528H20.6539C20.1102 19.8531 19.5887 19.6377 19.2036 19.2539C18.8186 18.87 18.6015 18.3492 18.6001 17.8055V14.8242C18.6001 13.6945 19.5209 12.7758 20.6539 12.7758H25.6462V9.25166C25.6462 7.28243 24.6858 6.32528 22.7122 6.32528H7.25281C5.27809 6.32528 4.31875 7.28243 4.31875 9.25166V11.1527C4.31875 11.6646 3.90375 12.0796 3.39182 12.0796C2.8799 12.0796 2.4649 11.6646 2.4649 11.1527V8.6066C2.46781 7.50607 2.90711 6.45162 3.68644 5.67455C4.46578 4.89748 5.5215 4.46125 6.62204 4.46155H23.3726C24.4732 4.46125 25.5291 4.89745 26.3086 5.67448C27.0881 6.45152 27.5276 7.50597 27.5308 8.6066V12.9297C28.2935 13.2506 28.8056 13.989 28.8374 14.8165V17.8055C28.8374 18.633 28.3187 19.3934 27.5451 19.7022ZM27.2682 15.3637C27.2682 14.7583 26.7671 14.2659 26.1528 14.2659H21.2847C20.6693 14.2659 20.1682 14.7583 20.1682 15.3637V17.1308C20.1682 17.7363 20.6693 18.2286 21.2847 18.2286H26.1528C26.7671 18.2286 27.2682 17.7297 27.2682 17.1165V15.3637ZM21.9012 17.411C21.5748 17.411 21.2495 17.2824 21.0341 17.0659C20.9193 16.9567 20.8281 16.825 20.7661 16.6791C20.7041 16.5332 20.6726 16.3761 20.6737 16.2176C20.6737 15.8637 20.7968 15.5703 21.0396 15.3473C21.2528 15.1352 21.5693 15.0077 21.8858 15.0077C22.1979 15.0077 22.5166 15.1374 22.7616 15.3615C22.9913 15.5736 23.1286 15.8934 23.1286 16.2176C23.1286 16.5187 22.9902 16.844 22.7671 17.067C22.5327 17.2876 22.223 17.4106 21.9012 17.411Z" fill="white"/>
<path id="Vector_2" d="M2.81588 13.6238H6.71224C6.79898 13.6238 6.88216 13.5894 6.9435 13.5281C7.00483 13.4667 7.03929 13.3835 7.03929 13.2968V12.2924C7.03929 11.55 7.93734 11.1782 8.46188 11.7035L11.8573 15.1028C12.3523 15.5984 12.3523 16.4014 11.8573 16.8971L8.46188 20.2964C7.93699 20.8216 7.03929 20.4502 7.03929 19.7074V18.7031C7.03929 18.6163 7.00483 18.5331 6.9435 18.4718C6.88216 18.4105 6.79898 18.376 6.71224 18.376H2.81588C2.29662 18.376 1.87558 17.955 1.87558 17.4357V14.5638C1.87558 14.0445 2.29662 13.6238 2.81588 13.6238Z" fill="#0CAF60"/>
</g>
</svg>
