<svg width="24" height="24" viewBox="0 0 24 24" fill="none" xmlns="http://www.w3.org/2000/svg">
<g id="Frame">
<g id="Group 9128">
<circle id="Ellipse 56" cx="12" cy="12" r="11" fill="#0CAF60"/>
<mask id="mask0_1418_4476" style="mask-type:alpha" maskUnits="userSpaceOnUse" x="0" y="1" width="23" height="22">
<circle id="Ellipse 57" cx="11.999" cy="12" r="11" fill="#F2F2F2"/>
</mask>
<g mask="url(#mask0_1418_4476)">
<path id="Vector" d="M21.4399 22.8209C21.4399 22.6326 21.4399 21.8791 20.969 21.0316C20.6865 20.4665 20.2156 20.0898 19.6506 19.7131C18.9913 19.3364 18.1437 18.9597 17.1078 18.7713C17.0136 18.7713 16.3544 18.6771 15.7893 18.4888C15.1301 18.3004 14.8475 18.2062 14.7534 18.1121V17.547C14.8475 16.3227 15.5068 15.6634 16.0718 15.0984C16.2602 14.91 16.4485 14.7217 16.6369 14.4391C17.2961 13.4974 17.3903 12.5556 17.3903 12.3672C17.3903 12.1789 17.3903 12.0847 17.2961 11.8964C17.202 11.708 17.1078 11.5197 17.0136 11.4255C17.0136 11.1429 17.1078 10.8604 17.1078 10.6721C17.1078 10.2012 17.202 9.44775 17.0136 8.69433C17.0136 8.60016 17.0136 8.4118 16.9194 8.22345C16.7311 7.65839 16.5427 7.1875 16.166 6.81079C15.9777 6.81079 14.6592 5.49231 11.0804 5.20978H9.66778C9.47943 5.20978 9.29107 5.20978 9.10272 5.30395C8.44348 5.49231 8.3493 5.9632 8.25513 6.15155V6.71661L8.16095 6.81079C8.06677 6.90497 7.125 7.75256 7.03082 8.88269C6.93664 9.63611 6.93664 10.7662 7.03082 11.6138C6.93664 11.8022 6.74829 11.9905 6.74829 12.4614C6.74829 12.6498 6.84247 13.5915 7.50171 14.4391C7.69006 14.6275 7.78424 14.8159 8.06677 15.0984C8.63183 15.7576 9.29107 16.4169 9.38525 17.547V18.1121C9.1969 18.2062 8.91437 18.3946 8.25513 18.5829C7.59588 18.7713 6.93664 18.8655 6.84247 18.8655C5.90069 19.0538 5.0531 19.3364 4.39386 19.7131C3.8288 20.0898 3.35791 20.5607 3.07538 21.0316C2.60449 21.8791 2.60449 22.6326 2.60449 22.8209V23.2918C2.60449 23.6685 2.9812 24.0452 3.45209 24.0452H20.5923C21.0632 24.0452 21.4399 23.6685 21.4399 23.1976V22.8209Z" fill="black" fill-opacity="0.31"/>
</g>
</g>
</g>
</svg>
