<svg width="33" height="32" viewBox="0 0 33 32" fill="none" xmlns="http://www.w3.org/2000/svg">
<g id="Frame">
<path id="Vector" d="M28.0451 19.7021V23.3922C28.0422 24.4928 27.6029 25.5474 26.8236 26.3246C26.0443 27.1019 24.9886 27.5384 23.888 27.5384H7.13633C6.03569 27.5384 4.97996 27.1019 4.20066 26.3246C3.42136 25.5474 2.9821 24.4928 2.97919 23.3922V20.962C2.97919 20.4498 3.39443 20.0345 3.90666 20.0345C4.41889 20.0345 4.83413 20.4498 4.83413 20.962V22.7482C4.83413 24.7164 5.79347 25.6735 7.7671 25.6735H23.2122C25.1858 25.6735 26.1462 24.7164 26.1462 22.7482V19.8526H21.1539C20.6102 19.8529 20.0887 19.6375 19.7036 19.2537C19.3186 18.8699 19.1015 18.349 19.1001 17.8054V14.8241C19.1001 13.6944 20.0209 12.7757 21.1539 12.7757H26.1462V9.25154C26.1462 7.28231 25.1858 6.32516 23.2122 6.32516H7.75281C5.77809 6.32516 4.81875 7.28231 4.81875 9.25154V11.1526C4.81875 11.6645 4.40375 12.0795 3.89182 12.0795C3.3799 12.0795 2.9649 11.6645 2.9649 11.1526V8.60648C2.96781 7.50594 3.40711 6.45149 4.18644 5.67443C4.96578 4.89736 6.0215 4.46113 7.12204 4.46143H23.8726C24.9732 4.46113 26.0291 4.89733 26.8086 5.67436C27.5881 6.45139 28.0276 7.50584 28.0308 8.60648V12.9296C28.7935 13.2504 29.3056 13.9889 29.3374 14.8164V17.8054C29.3374 18.6329 28.8187 19.3933 28.0451 19.7021ZM27.7682 15.3636C27.7682 14.7581 27.2671 14.2658 26.6528 14.2658H21.7847C21.1693 14.2658 20.6682 14.7581 20.6682 15.3636V17.1307C20.6682 17.7362 21.1693 18.2285 21.7847 18.2285H26.6528C27.2671 18.2285 27.7682 17.7296 27.7682 17.1164V15.3636ZM22.4012 17.4109C22.0748 17.4109 21.7495 17.2823 21.5341 17.0658C21.4193 16.9565 21.3281 16.8249 21.2661 16.679C21.2041 16.5331 21.1726 16.376 21.1737 16.2175C21.1737 15.8636 21.2968 15.5702 21.5396 15.3471C21.7528 15.1351 22.0693 15.0076 22.3858 15.0076C22.6979 15.0076 23.0166 15.1373 23.2616 15.3614C23.4913 15.5735 23.6286 15.8933 23.6286 16.2175C23.6286 16.5186 23.4902 16.8438 23.2671 17.0669C23.0327 17.2875 22.723 17.4105 22.4012 17.4109Z" fill="white"/>
<path id="Vector_2" d="M3.31588 13.6238H7.21224C7.29898 13.6238 7.38216 13.5894 7.4435 13.5281C7.50483 13.4667 7.53929 13.3835 7.53929 13.2968V12.2924C7.53929 11.55 8.43734 11.1782 8.96188 11.7035L12.3573 15.1028C12.8523 15.5984 12.8523 16.4014 12.3573 16.8971L8.96188 20.2964C8.43699 20.8216 7.53929 20.4502 7.53929 19.7074V18.7031C7.53929 18.6163 7.50483 18.5331 7.4435 18.4718C7.38216 18.4105 7.29898 18.376 7.21224 18.376H3.31588C2.79662 18.376 2.37558 17.955 2.37558 17.4357V14.5638C2.37558 14.0445 2.79662 13.6238 3.31588 13.6238Z" fill="#0CAF60"/>
</g>
</svg>
