<svg width="32" height="32" viewBox="0 0 32 32" fill="none" xmlns="http://www.w3.org/2000/svg">
<g id="Frame">
<g id="Group 37558">
<g id="Union">
<path fill-rule="evenodd" clip-rule="evenodd" d="M22.17 8.01636L21.5206 5.89779C21.4305 5.60419 21.2316 5.36304 20.9601 5.21941C20.6887 5.07578 20.3775 5.04621 20.0839 5.13703L10.7532 8.01636H22.17ZM5.27923 8.06521C5.32623 8.03923 5.37659 8.01766 5.42995 8.00122L19.6175 3.62327C20.3159 3.40782 21.0563 3.47752 21.7022 3.81971C22.3482 4.16189 22.8217 4.73501 23.0361 5.4338L23.8277 8.01636H24.169C25.9071 8.01636 27.3212 9.4305 27.3212 11.1685V12.9326C27.3212 13.3702 26.9667 13.7247 26.5291 13.7247C26.0915 13.7247 25.737 13.3702 25.737 12.9326V11.1685C25.737 10.3039 25.0336 9.60053 24.169 9.60053H5.8338C4.96919 9.60053 4.26582 10.3039 4.26582 11.1685V24.5564C4.26582 25.421 4.96919 26.1244 5.8338 26.1244H24.169C25.0336 26.1244 25.737 25.421 25.737 24.5564V22.905C25.737 22.4674 26.0915 22.1129 26.5291 22.1129C26.9667 22.1129 27.3212 22.4674 27.3212 22.905V24.5564C27.3212 26.2944 25.9071 27.7086 24.169 27.7086H5.8338C4.09578 27.7086 2.68164 26.2944 2.68164 24.5564V11.1685C2.68164 9.61966 3.80471 8.32801 5.27923 8.06521ZM7.49326 23.1958C7.05568 23.1958 6.70117 22.8413 6.70117 22.4037V13.3211C6.70117 12.8836 7.05568 12.5291 7.49326 12.5291C7.93084 12.5291 8.28535 12.8836 8.28535 13.3211V22.4037C8.28535 22.8413 7.93084 23.1958 7.49326 23.1958Z" fill="white"/>
<path d="M22.17 8.01636V8.16636H22.3728L22.3134 7.9724L22.17 8.01636ZM21.5206 5.89779L21.664 5.85383L21.664 5.85377L21.5206 5.89779ZM20.0839 5.13703L20.1282 5.28037L20.1283 5.28033L20.0839 5.13703ZM10.7532 8.01636L10.709 7.87303L10.7532 8.16636V8.01636ZM5.27923 8.06521L5.30555 8.21288L5.33004 8.20851L5.3518 8.19648L5.27923 8.06521ZM5.42995 8.00122L5.47412 8.14457L5.47418 8.14455L5.42995 8.00122ZM19.6175 3.62327L19.5733 3.47993L19.5732 3.47994L19.6175 3.62327ZM21.7022 3.81971L21.7725 3.68715L21.7022 3.81971ZM23.0361 5.4338L23.1795 5.38984L23.1795 5.38981L23.0361 5.4338ZM23.8277 8.01636L23.6843 8.06032L23.7168 8.16636H23.8277V8.01636ZM22.3134 7.9724L21.664 5.85383L21.3772 5.94175L22.0266 8.06032L22.3134 7.9724ZM21.664 5.85377C21.5622 5.52224 21.3371 5.24916 21.0303 5.08683L20.89 5.35199C21.1261 5.47693 21.2987 5.68614 21.3772 5.94181L21.664 5.85377ZM21.0303 5.08683C20.7238 4.92463 20.3714 4.89109 20.0396 4.99373L20.1283 5.28033C20.3836 5.20133 20.6537 5.22694 20.89 5.35199L21.0303 5.08683ZM20.0397 4.9937L10.709 7.87303L10.7974 8.15969L20.1282 5.28037L20.0397 4.9937ZM22.17 7.86636H10.7532V8.16636H22.17V7.86636ZM5.3518 8.19648C5.38982 8.17546 5.43067 8.15796 5.47412 8.14457L5.38579 7.85787C5.32251 7.87737 5.26263 7.90299 5.20666 7.93393L5.3518 8.19648ZM5.47418 8.14455L19.6617 3.7666L19.5732 3.47994L5.38572 7.85789L5.47418 8.14455ZM19.6617 3.7666C20.3221 3.56289 21.0212 3.62872 21.632 3.95226L21.7725 3.68715C21.0913 3.32632 20.3098 3.25275 19.5733 3.47993L19.6617 3.7666ZM21.632 3.95226C22.2428 4.27579 22.69 4.81705 22.8927 5.4778L23.1795 5.38981C22.9535 4.65297 22.4537 4.04798 21.7725 3.68715L21.632 3.95226ZM22.8927 5.47776L23.6843 8.06032L23.9711 7.9724L23.1795 5.38984L22.8927 5.47776ZM24.169 7.86636H23.8277V8.16636H24.169V7.86636ZM27.4712 11.1685C27.4712 9.34766 25.9899 7.86636 24.169 7.86636V8.16636C25.8242 8.16636 27.1712 9.51334 27.1712 11.1685H27.4712ZM27.4712 12.9326V11.1685H27.1712V12.9326H27.4712ZM26.5291 13.8747C27.0495 13.8747 27.4712 13.453 27.4712 12.9326H27.1712C27.1712 13.2873 26.8838 13.5747 26.5291 13.5747V13.8747ZM25.587 12.9326C25.587 13.453 26.0087 13.8747 26.5291 13.8747V13.5747C26.1744 13.5747 25.887 13.2873 25.887 12.9326H25.587ZM25.587 11.1685V12.9326H25.887V11.1685H25.587ZM24.169 9.75053C24.9508 9.75053 25.587 10.3867 25.587 11.1685H25.887C25.887 10.2211 25.1165 9.45053 24.169 9.45053V9.75053ZM5.8338 9.75053H24.169V9.45053H5.8338V9.75053ZM4.41582 11.1685C4.41582 10.3867 5.05203 9.75053 5.8338 9.75053V9.45053C4.88635 9.45053 4.11582 10.2211 4.11582 11.1685H4.41582ZM4.41582 24.5564V11.1685H4.11582V24.5564H4.41582ZM5.8338 25.9744C5.05203 25.9744 4.41582 25.3382 4.41582 24.5564H4.11582C4.11582 25.5039 4.88635 26.2744 5.8338 26.2744V25.9744ZM24.169 25.9744H5.8338V26.2744H24.169V25.9744ZM25.587 24.5564C25.587 25.3382 24.9508 25.9744 24.169 25.9744V26.2744C25.1165 26.2744 25.887 25.5039 25.887 24.5564H25.587ZM25.587 22.905V24.5564H25.887V22.905H25.587ZM26.5291 21.9629C26.0087 21.9629 25.587 22.3846 25.587 22.905H25.887C25.887 22.5503 26.1744 22.2629 26.5291 22.2629V21.9629ZM27.4712 22.905C27.4712 22.3846 27.0495 21.9629 26.5291 21.9629V22.2629C26.8838 22.2629 27.1712 22.5503 27.1712 22.905H27.4712ZM27.4712 24.5564V22.905H27.1712V24.5564H27.4712ZM24.169 27.8586C25.9899 27.8586 27.4712 26.3773 27.4712 24.5564H27.1712C27.1712 26.2116 25.8242 27.5586 24.169 27.5586V27.8586ZM5.8338 27.8586H24.169V27.5586H5.8338V27.8586ZM2.53164 24.5564C2.53164 26.3773 4.01294 27.8586 5.8338 27.8586V27.5586C4.17862 27.5586 2.83164 26.2116 2.83164 24.5564H2.53164ZM2.53164 11.1685V24.5564H2.83164V11.1685H2.53164ZM5.25291 7.91753C3.70819 8.19285 2.53164 9.54559 2.53164 11.1685H2.83164C2.83164 9.69373 3.90123 8.46318 5.30555 8.21288L5.25291 7.91753ZM6.55117 22.4037C6.55117 22.9242 6.97283 23.3458 7.49326 23.3458V23.0458C7.13852 23.0458 6.85117 22.7585 6.85117 22.4037H6.55117ZM6.55117 13.3211V22.4037H6.85117V13.3211H6.55117ZM7.49326 12.3791C6.97283 12.3791 6.55117 12.8007 6.55117 13.3211H6.85117C6.85117 12.9664 7.13852 12.6791 7.49326 12.6791V12.3791ZM8.43535 13.3211C8.43535 12.8007 8.01369 12.3791 7.49326 12.3791V12.6791C7.848 12.6791 8.13535 12.9664 8.13535 13.3211H8.43535ZM8.43535 22.4037V13.3211H8.13535V22.4037H8.43535ZM7.49326 23.3458C8.01369 23.3458 8.43535 22.9242 8.43535 22.4037H8.13535C8.13535 22.7585 7.848 23.0458 7.49326 23.0458V23.3458Z" fill="white"/>
</g>
<path id="Vector" d="M28.3794 15.4368H24.4831C24.3963 15.4368 24.3131 15.4024 24.2518 15.341C24.1905 15.2797 24.156 15.1965 24.156 15.1098V14.1054C24.156 13.363 23.258 12.9912 22.7334 13.5165L19.338 16.9157C18.8431 17.4114 18.8431 18.2144 19.338 18.7101L22.7334 22.1094C23.2583 22.6346 24.156 22.2632 24.156 21.5204V20.516C24.156 20.4293 24.1905 20.3461 24.2518 20.2848C24.3131 20.2235 24.3963 20.189 24.4831 20.189H28.3794C28.8987 20.189 29.3197 19.768 29.3197 19.2487V16.3768C29.3197 15.8575 28.8987 15.4368 28.3794 15.4368Z" fill="#0CAF60"/>
</g>
</g>
</svg>
