<svg width="11" height="12" viewBox="0 0 11 12" fill="none" xmlns="http://www.w3.org/2000/svg">
<path id="Vector" d="M3.90789 0.501465H9.98684C10.2555 0.501465 10.5132 0.608208 10.7033 0.798212C10.8933 0.988216 11 1.24592 11 1.51462V7.59357C11 7.86228 10.8933 8.11998 10.7033 8.30998C10.5132 8.49998 10.2555 8.60673 9.98684 8.60673H3.90789C3.63919 8.60673 3.38149 8.49998 3.19148 8.30998C3.00148 8.11998 2.89474 7.86228 2.89474 7.59357V1.51462C2.89474 1.24592 3.00148 0.988216 3.19148 0.798212C3.38149 0.608208 3.63919 0.501465 3.90789 0.501465ZM3.90789 1.36989C3.86951 1.36989 3.83269 1.38513 3.80555 1.41228C3.77841 1.43942 3.76316 1.47624 3.76316 1.51462V7.59357C3.76316 7.61258 3.7669 7.6314 3.77418 7.64896C3.78145 7.66652 3.79211 7.68247 3.80555 7.69591C3.81899 7.70935 3.83495 7.72002 3.85251 7.72729C3.87007 7.73456 3.88889 7.73831 3.90789 7.73831H9.98684C10.0252 7.73831 10.062 7.72306 10.0892 7.69591C10.1163 7.66877 10.1316 7.63196 10.1316 7.59357V1.51462C10.1316 1.47624 10.1163 1.43942 10.0892 1.41228C10.062 1.38513 10.0252 1.36989 9.98684 1.36989H3.90789ZM7.23684 9.47515C7.23684 9.35999 7.28259 9.24955 7.36402 9.16812C7.44545 9.08669 7.55589 9.04094 7.67105 9.04094C7.78621 9.04094 7.89666 9.08669 7.97809 9.16812C8.05952 9.24955 8.10526 9.35999 8.10526 9.47515V10.4883C8.10526 10.757 7.99852 11.0147 7.80852 11.2047C7.61851 11.3947 7.36081 11.5015 7.0921 11.5015H1.01316C0.744452 11.5015 0.486751 11.3947 0.296747 11.2047C0.106743 11.0147 3.59874e-09 10.757 0 10.4883V4.40936C0 4.14065 0.106743 3.88295 0.296747 3.69295C0.486751 3.50294 0.744452 3.3962 1.01316 3.3962H2.02632C2.14148 3.3962 2.25192 3.44195 2.33335 3.52338C2.41478 3.60481 2.46053 3.71525 2.46053 3.83041C2.46053 3.94557 2.41478 4.05602 2.33335 4.13745C2.25192 4.21888 2.14148 4.26462 2.02632 4.26462H1.01316C0.974771 4.26462 0.937957 4.27987 0.910814 4.30702C0.88367 4.33416 0.868421 4.37097 0.868421 4.40936V10.4883C0.868421 10.5267 0.88367 10.5635 0.910814 10.5907C0.937957 10.6178 0.974771 10.633 1.01316 10.633H7.0921C7.13049 10.633 7.16731 10.6178 7.19445 10.5907C7.22159 10.5635 7.23684 10.5267 7.23684 10.4883V9.47515Z" fill="#A1A1A1"/>
</svg>
