<svg width="18" height="18" viewBox="0 0 18 18" fill="none" xmlns="http://www.w3.org/2000/svg">
<g id="Frame">
<path id="Vector" d="M14.5125 7.87503C14.4259 7.87501 14.3401 7.89226 14.2602 7.92575C14.1803 7.95924 14.1078 8.00831 14.0471 8.0701C13.9864 8.13189 13.9385 8.20515 13.9064 8.28562C13.8743 8.36609 13.8585 8.45215 13.86 8.53878V12.8138C13.8571 13.0754 13.7518 13.3255 13.5668 13.5106C13.3818 13.6956 13.1317 13.8009 12.87 13.8038H5.13C4.86835 13.8009 4.61823 13.6956 4.4332 13.5106C4.24817 13.3255 4.14293 13.0754 4.14 12.8138V5.05128C4.14293 4.78962 4.24817 4.5395 4.4332 4.35447C4.61823 4.16944 4.86835 4.0642 5.13 4.06128H9.495C9.5817 4.0584 9.66695 4.03827 9.74577 4.00207C9.82459 3.96586 9.8954 3.9143 9.95406 3.8504C10.0127 3.7865 10.0581 3.71155 10.0874 3.62993C10.1168 3.5483 10.1295 3.46165 10.125 3.37503C10.124 3.29313 10.1058 3.21236 10.0715 3.13794C10.0373 3.06353 9.98786 2.99713 9.92635 2.94305C9.86484 2.88896 9.79266 2.84839 9.71448 2.82397C9.6363 2.79955 9.55386 2.79182 9.4725 2.80128H5.13C4.53327 2.80128 3.96097 3.03833 3.53901 3.46029C3.11706 3.88224 2.88 4.45454 2.88 5.05128V12.78C2.88 13.3768 3.11706 13.9491 3.53901 14.371C3.96097 14.793 4.53327 15.03 5.13 15.03H12.8588C13.4555 15.03 14.0278 14.793 14.4497 14.371C14.8717 13.9491 15.1088 13.3768 15.1088 12.78V8.58378C15.0863 8.17878 14.8388 7.87503 14.5125 7.87503Z" fill="#868686"/>
<path id="Vector_2" d="M6.36753 11.3851C6.47834 11.4903 6.62533 11.549 6.77816 11.549C6.93098 11.549 7.07797 11.4903 7.18878 11.3851L14.4338 4.1401C14.5054 4.08423 14.5644 4.01377 14.6068 3.93339C14.6491 3.85301 14.6739 3.76455 14.6795 3.67386C14.6851 3.58318 14.6713 3.49234 14.6392 3.40737C14.607 3.32239 14.5571 3.24523 14.4929 3.18098C14.4287 3.11674 14.3515 3.06688 14.2665 3.0347C14.1815 3.00253 14.0907 2.98879 14 2.99438C13.9093 2.99997 13.8209 3.02477 13.7405 3.06713C13.6601 3.10949 13.5897 3.16845 13.5338 3.2401L6.36753 10.5638C6.28674 10.6856 6.24365 10.8284 6.24365 10.9745C6.24365 11.1206 6.28674 11.2634 6.36753 11.3851Z" fill="#868686"/>
</g>
</svg>
