<svg width="48" height="48" viewBox="0 0 48 48" fill="none" xmlns="http://www.w3.org/2000/svg">
<g id="Group 37572">
<circle id="Ellipse 1480" cx="24" cy="24" r="24" fill="#1C1E27"/>
<g id="Group 37593">
<path id="Vector" d="M35.5856 28.5689C35.5044 28.0876 35.0876 27.7353 34.5995 27.7353H28.7389L33.9782 21.7756C34.5313 21.1464 34.4677 20.1854 33.84 19.6336L26.0315 12.7696C25.7286 12.5043 25.333 12.3699 24.9312 12.3958C24.5295 12.4217 24.1544 12.6059 23.8882 12.9079L14.708 23.3478C14.576 23.4974 14.475 23.6717 14.4109 23.8607C14.3468 24.0496 14.3209 24.2494 14.3346 24.4484C14.3595 24.8522 14.542 25.2228 14.8462 25.4897L17.4002 27.7367H13.6786C13.2049 27.7367 12.7962 28.0691 12.6996 28.5328L11.4772 34.4036C11.3479 35.0245 11.822 35.6074 12.4562 35.6074H35.5906C36.2094 35.6074 36.6797 35.0511 36.5767 34.441L35.5856 28.5689ZM15.6012 24.3655C15.599 24.333 15.6032 24.3004 15.6136 24.2695C15.6241 24.2386 15.6405 24.2102 15.6621 24.1857L24.8437 13.7458C24.887 13.6969 24.9479 13.6671 25.0131 13.6627C25.0783 13.6583 25.1426 13.6797 25.1921 13.7223L33.0006 20.5878C33.0499 20.6312 33.08 20.6923 33.0844 20.7578C33.0888 20.8234 33.0672 20.888 33.0241 20.9376L27.0464 27.7353L26.9455 27.8501L24.4026 30.7401H22.6727L22.7031 30.7069L15.6842 24.5342C15.6599 24.5129 15.6401 24.4871 15.6259 24.4581C15.6116 24.4292 15.6033 24.3977 15.6012 24.3655ZM34.9954 33.9908C35.0226 34.1721 34.8822 34.3353 34.6988 34.3353H13.431C13.2404 34.3353 13.0981 34.1597 13.1375 33.9732L14.1377 29.244C14.167 29.1053 14.2895 29.0061 14.4312 29.0061H18.8466L20.8198 30.7414H17.739L17.2841 31.8891H30.5158L30.1673 30.7414H26.0937L27.6203 29.0061H33.9895C34.138 29.0061 34.2642 29.1147 34.2862 29.2616L34.9954 33.9908Z" fill="white" stroke="white" stroke-width="0.4"/>
<path id="Vector_2" d="M24.101 25.1745L28.483 20.3334C28.5416 20.272 28.5873 20.1994 28.6174 20.12C28.6476 20.0405 28.6615 19.9559 28.6583 19.871C28.6552 19.7861 28.6351 19.7027 28.5992 19.6257C28.5633 19.5488 28.5124 19.4797 28.4494 19.4227C28.3864 19.3658 28.3127 19.322 28.2325 19.294C28.1523 19.2659 28.0673 19.2543 27.9825 19.2596C27.8978 19.265 27.8149 19.2873 27.7389 19.3252C27.6629 19.3631 27.5952 19.4158 27.5399 19.4803L23.5119 23.9328L21.807 22.391C21.7464 22.3287 21.6737 22.2795 21.5934 22.2464C21.5131 22.2132 21.4268 22.1969 21.34 22.1984C21.2531 22.1999 21.1674 22.2192 21.0883 22.2551C21.0092 22.2909 20.9382 22.3426 20.8799 22.407C20.8215 22.4713 20.7769 22.547 20.7489 22.6292C20.7208 22.7114 20.7099 22.7985 20.7169 22.8851C20.7238 22.9717 20.7484 23.056 20.7891 23.1327C20.8299 23.2095 20.8859 23.277 20.9538 23.3313L23.0473 25.2257C23.3235 25.4782 23.8466 25.46 24.101 25.1745Z" fill="#0CAF60" stroke="#0CAF60" stroke-width="0.4"/>
</g>
</g>
</svg>
