<svg width="40" height="36" viewBox="0 0 40 36" fill="none" xmlns="http://www.w3.org/2000/svg">
<g id="Group 48880">
<path id="Subtract" d="M29.1738 15.293C34.8876 15.293 39.5195 19.9249 39.5195 25.6387C39.5195 31.3524 34.8876 35.9844 29.1738 35.9844C23.4601 35.9844 18.8281 31.3524 18.8281 25.6387C18.8281 19.9249 23.4601 15.293 29.1738 15.293ZM33.3662 21.4453C32.8781 20.9572 32.0868 20.9572 31.5986 21.4453L29.1709 23.873L26.7461 21.4473C26.2581 20.9594 25.4667 20.9596 24.9785 21.4473C24.4904 21.9354 24.4904 22.7277 24.9785 23.2158L27.4033 25.6406L24.9785 28.0654C24.4904 28.5536 24.4904 29.3458 24.9785 29.834C25.4667 30.3217 26.2581 30.3219 26.7461 29.834L29.1709 27.4082L31.5986 29.8359C32.0868 30.3241 32.8781 30.324 33.3662 29.8359C33.8544 29.3478 33.8544 28.5565 33.3662 28.0684L30.9385 25.6406L33.3662 23.2129C33.8544 22.7247 33.8544 21.9335 33.3662 21.4453Z" fill="#8B939A"/>
<path id="Subtract_2" d="M5.60513 30.1348C6.11155 29.4793 7.05407 29.358 7.70962 29.8643C10.2424 31.8207 13.4164 32.9843 16.8659 32.9844C17.904 32.9843 18.9175 32.8777 19.8961 32.6768C20.605 33.6098 21.4522 34.4308 22.4059 35.1133C20.6606 35.6776 18.799 35.9843 16.8659 35.9844C12.7295 35.9843 8.91418 34.5863 5.87466 32.2383C5.21969 31.7318 5.09912 30.7902 5.60513 30.1348ZM18.0875 7.29688C18.9158 7.29706 19.5875 7.96856 19.5875 8.79688V15.9902L20.9215 17.4199C20.2052 18.1392 19.5846 18.9531 19.0749 19.8389L16.5875 17.1729V8.79688C16.5875 7.96855 17.2593 7.29704 18.0875 7.29688ZM16.8659 0C25.9107 0.000243024 33.3958 6.67488 34.6667 15.3672C33.6501 14.8225 32.5434 14.4257 31.3747 14.2021C29.6957 7.75744 23.8362 3.00022 16.8659 3C13.3302 3.00007 10.0805 4.22381 7.51626 6.27246L11.2106 9.89355C11.8932 10.5626 11.455 11.724 10.5006 11.7754L1.15786 12.2773C0.514362 12.3118 -0.0210192 11.7877 0.000634658 11.1436L0.315088 1.79297C0.347207 0.837833 1.49963 0.376294 2.18228 1.04492L5.36001 4.15918C8.4781 1.56346 12.49 7.15666e-05 16.8659 0Z" fill="#8B939A"/>
</g>
</svg>
