<svg width="28" height="29" viewBox="0 0 28 29" fill="none" xmlns="http://www.w3.org/2000/svg">
<g id="Frame">
<path id="Vector" d="M6.1507 24.3278H9.3831C9.9484 24.3278 10.4122 23.864 10.4122 23.2987C10.4122 22.7334 9.9484 22.2695 9.3831 22.2695H6.1507C5.20852 22.2695 4.44029 21.5013 4.44029 20.5591V17.7036C4.44029 17.1673 3.97644 16.7034 3.42563 16.7034C2.86033 16.7034 2.39648 17.1673 2.39648 17.7326V20.5881C2.39648 22.6464 4.07791 24.3278 6.1507 24.3278ZM21.8488 24.3568H18.6164C18.0511 24.3568 17.5873 23.893 17.5873 23.3277C17.5873 22.7624 18.0511 22.2985 18.6164 22.2985H21.8488C22.791 22.2985 23.5592 21.5303 23.5592 20.5881V17.7326C23.5592 17.1963 24.0231 16.7324 24.5739 16.7324C25.1392 16.7324 25.603 17.1963 25.603 17.7616V20.6026C25.5886 22.6754 23.9071 24.3568 21.8488 24.3568ZM21.8488 4.67254H18.6164C18.0511 4.67254 17.5873 5.13639 17.5873 5.70169C17.5873 6.267 18.0511 6.73084 18.6164 6.73084H21.8488C22.791 6.73084 23.5592 7.49908 23.5592 8.44126V11.2968C23.5592 11.8331 24.0231 12.2969 24.5739 12.2969C25.1392 12.2969 25.603 11.8331 25.603 11.2678V8.42676C25.5886 6.35397 23.9071 4.67254 21.8488 4.67254ZM6.1507 4.64355H9.3831C9.9484 4.64355 10.4122 5.1074 10.4122 5.6727C10.4122 6.23801 9.9484 6.70185 9.3831 6.70185H6.1507C5.20852 6.70185 4.44029 7.47009 4.44029 8.41227V11.2678C4.44029 11.8041 3.97644 12.2679 3.42563 12.2679C2.86033 12.2679 2.39648 11.8041 2.39648 11.2388V8.39777C2.39648 6.32498 4.07791 4.64355 6.1507 4.64355Z" fill="white"/>
<path id="Vector_2" d="M18.8355 15.2536C18.763 15.2246 17.8933 14.8478 16.7772 14.5434C16.5598 14.4854 16.3568 14.4274 16.1394 14.3839C16.5598 13.8766 16.7917 13.2678 16.7917 12.6155V10.7312C16.7917 9.1657 15.4871 7.89014 13.8782 7.89014C12.2692 7.89014 10.9647 9.1657 10.9647 10.7312V12.6155C10.9647 13.2823 11.2111 13.9201 11.646 14.4274C11.443 14.4854 11.2256 14.5434 11.0082 14.6013C10.3849 14.7898 9.7616 15.0072 9.1673 15.2536C8.602 15.471 8.18164 16.0798 8.18164 16.6886V18.7469L8.22513 18.8629C8.41356 19.4137 8.92089 19.7761 9.50069 19.7761H18.4876C19.1399 19.7761 19.7052 19.2977 19.7922 18.66V16.6741C19.7922 16.0943 19.3863 15.471 18.8355 15.2536ZM9.80509 16.6741C9.93554 16.6162 10.9357 16.2103 12.0953 15.9204C12.8201 15.7465 13.4578 15.645 13.9942 15.645C14.487 15.645 15.0668 15.7175 15.7191 15.8769C16.5598 16.0798 17.386 16.3407 18.1832 16.6741C18.1832 16.6886 18.1977 16.6886 18.1977 16.7031V18.2251H9.7761V16.7031L9.80509 16.6741ZM15.1972 12.601C15.1972 13.3113 14.6029 13.8911 13.8782 13.8911C13.1534 13.8911 12.5591 13.3113 12.5591 12.601V10.7312C12.5591 10.0209 13.1534 9.44111 13.8782 9.44111C14.6029 9.44111 15.1972 10.0209 15.1972 10.7312V12.601Z" fill="#0CAF60"/>
</g>
</svg>
