<svg width="29" height="29" viewBox="0 0 29 29" fill="none" xmlns="http://www.w3.org/2000/svg">
<g id="Frame">
<path id="Vector" d="M24.2406 16.777C24.6512 16.777 25.0112 16.4879 25.069 16.0775C25.141 15.5663 25.1782 15.0439 25.1782 14.5128C25.1782 8.37091 20.1992 3.39189 14.0573 3.39189C7.91534 3.39189 2.93633 8.37091 2.93633 14.5128C2.93633 20.6548 7.91534 25.6338 14.0573 25.6338C14.5883 25.6338 15.1107 25.5966 15.622 25.5246C16.0323 25.4668 16.3215 25.1068 16.3215 24.6961C16.3215 24.1349 15.7971 23.7285 15.2477 23.7982C14.8579 23.8477 14.4606 23.8732 14.0573 23.8732C8.88772 23.8732 4.69697 19.6824 4.69697 14.5128C4.69697 9.34329 8.88772 5.15254 14.0573 5.15254C19.2268 5.15254 23.4176 9.34329 23.4176 14.5128C23.4176 14.9162 23.3921 15.3135 23.3426 15.7033C23.2729 16.2526 23.6794 16.777 24.2406 16.777ZM14.7997 10.4876C14.3897 10.0775 13.7249 10.0775 13.3148 10.4876L10.032 13.7704C9.62198 14.1804 9.62198 14.8453 10.032 15.2553L13.3148 18.5381C13.7249 18.9482 14.3897 18.9482 14.7997 18.5381L18.0825 15.2553C18.4926 14.8453 18.4926 14.1804 18.0825 13.7704L14.7997 10.4876ZM14.0573 12.235L16.3351 14.5128L14.0573 16.7907L11.7795 14.5128L14.0573 12.235Z" fill="white" stroke="white" stroke-width="0.1"/>
<path id="Vector_2" d="M17.9869 20.6576C17.884 20.7322 17.8149 20.8447 17.7949 20.9702L17.2838 24.1752C17.2637 24.3007 17.2944 24.4291 17.369 24.532C17.4436 24.6349 17.556 24.704 17.6816 24.724C17.8071 24.744 17.9354 24.7133 18.0384 24.6387C18.1413 24.5641 18.2103 24.4517 18.2304 24.3262L18.3244 23.7366C18.3878 23.8408 18.4563 23.9436 18.5298 24.045C19.1982 24.9671 20.0991 25.5206 21.2235 25.6999C22.319 25.8746 23.3262 25.6439 24.2356 25.0099C24.2885 24.9753 24.334 24.9306 24.3696 24.8783C24.4058 24.8251 24.431 24.7651 24.4435 24.7019C24.456 24.6387 24.4557 24.5736 24.4425 24.5105C24.4293 24.4475 24.4035 24.3877 24.3667 24.3349C24.3299 24.282 24.2828 24.2371 24.2283 24.2028C24.1737 24.1686 24.1128 24.1456 24.0492 24.1355C23.9856 24.1253 23.9206 24.128 23.858 24.1435C23.7966 24.1587 23.7388 24.1859 23.688 24.2236C22.9871 24.7121 22.2191 24.888 21.3745 24.7533C20.5081 24.6151 19.8213 24.1936 19.3051 23.483C18.7903 22.7719 18.6033 21.988 18.7415 21.1212C18.7615 20.9956 18.7308 20.8673 18.6562 20.7644C18.5816 20.6615 18.4692 20.5924 18.3437 20.5724C18.2181 20.5524 18.0898 20.583 17.9869 20.6576Z" fill="#0CAF60" stroke="#0CAF60" stroke-width="0.35"/>
<path id="Vector_3" d="M25.6733 22.6832C25.7762 22.6086 25.8453 22.4962 25.8653 22.3706L26.3764 19.1656C26.3964 19.0401 26.3658 18.9117 26.2912 18.8088C26.2165 18.7059 26.1041 18.6368 25.9786 18.6168C25.8531 18.5968 25.7247 18.6275 25.6218 18.7021C25.5189 18.7767 25.4498 18.8891 25.4298 19.0147L25.3358 19.6042C25.2724 19.5 25.2039 19.3972 25.1304 19.2958C24.462 18.3737 23.561 17.8202 22.4366 17.6409C21.3412 17.4662 20.3339 17.6969 19.4245 18.331C19.3716 18.3655 19.3261 18.4102 19.2906 18.4625C19.2543 18.5157 19.2292 18.5758 19.2167 18.639C19.2041 18.7021 19.2045 18.7672 19.2177 18.8303C19.2309 18.8933 19.2566 18.9531 19.2934 19.006C19.3303 19.0588 19.3773 19.1037 19.4319 19.138C19.4865 19.1723 19.5474 19.1952 19.611 19.2054C19.6746 19.2156 19.7396 19.2128 19.8021 19.1973C19.8635 19.1821 19.9213 19.1549 19.9721 19.1172C20.6731 18.6287 21.4411 18.4528 22.2857 18.5875C23.1521 18.7257 23.8389 19.1473 24.355 19.8578C24.8699 20.569 25.0569 21.3528 24.9187 22.2197C24.8986 22.3452 24.9293 22.4735 25.0039 22.5764C25.0785 22.6794 25.191 22.7484 25.3165 22.7684C25.442 22.7885 25.5703 22.7578 25.6733 22.6832Z" fill="#0CAF60" stroke="#0CAF60" stroke-width="0.35"/>
</g>
</svg>
