<svg width="28" height="29" viewBox="0 0 28 29" fill="none" xmlns="http://www.w3.org/2000/svg">
<g id="Frame">
<path id="Vector" d="M17.7692 20.1874V22.2231C17.7692 22.4935 17.6617 22.7529 17.4705 22.9441C17.2793 23.1353 17.0199 23.2428 16.7495 23.2428H6.63058C6.36014 23.2428 6.10078 23.1353 5.90956 22.9441C5.71833 22.7529 5.6109 22.4935 5.6109 22.2231V6.77707C5.6109 6.50663 5.71833 6.24727 5.90956 6.05604C6.10078 5.86481 6.36014 5.75738 6.63058 5.75738H16.7495C17.0199 5.75738 17.2793 5.86481 17.4705 6.05604C17.6617 6.24727 17.7692 6.50663 17.7692 6.77707V8.81276C17.7692 9.08335 17.8767 9.34287 18.068 9.53421C18.2593 9.72555 18.5189 9.83305 18.7895 9.83305C19.0601 9.83305 19.3196 9.72555 19.5109 9.53421C19.7023 9.34287 19.8098 9.08335 19.8098 8.81276V6.77707C19.8098 5.96543 19.4873 5.18704 18.9134 4.61313C18.3395 4.03922 17.5611 3.7168 16.7495 3.7168H6.63058C5.81895 3.7168 5.04056 4.03922 4.46664 4.61313C3.89273 5.18704 3.57031 5.96543 3.57031 6.77707V22.2231C3.57031 23.0347 3.89273 23.8131 4.46664 24.387C5.04056 24.9609 5.81895 25.2834 6.63058 25.2834H16.7495C17.5611 25.2834 18.3395 24.9609 18.9134 24.387C19.4873 23.8131 19.8098 23.0347 19.8098 22.2231V20.1874C19.8098 19.9168 19.7023 19.6573 19.5109 19.4659C19.3196 19.2746 19.0601 19.1671 18.7895 19.1671C18.5189 19.1671 18.2593 19.2746 18.068 19.4659C17.8767 19.6573 17.7692 19.9168 17.7692 20.1874Z" fill="white"/>
<path id="Vector_2" d="M22.6363 15.5777L21.5505 16.6635C21.3591 16.8551 21.2517 17.1148 21.2518 17.3856C21.2519 17.6563 21.3596 17.916 21.5511 18.1074C21.7427 18.2987 22.0024 18.4062 22.2732 18.4061C22.5439 18.406 22.8036 18.2983 22.995 18.1067L25.879 15.2228C25.9738 15.128 26.0491 15.0156 26.1004 14.8917C26.1518 14.7679 26.1782 14.6352 26.1782 14.5011C26.1782 14.3671 26.1518 14.2344 26.1004 14.1105C26.0491 13.9867 25.9738 13.8742 25.879 13.7795L22.995 10.8931C22.8036 10.7015 22.5439 10.5939 22.2732 10.5938C22.0024 10.5936 21.7427 10.7011 21.5511 10.8925C21.3596 11.0839 21.2519 11.3435 21.2518 11.6143C21.2517 11.885 21.3591 12.1448 21.5505 12.3363L22.7501 13.5384H14.4617C14.1911 13.5384 13.9316 13.6459 13.7402 13.8372C13.5489 14.0286 13.4414 14.2881 13.4414 14.5587C13.4414 14.8293 13.5489 15.0888 13.7402 15.2801C13.9316 15.4715 14.1911 15.579 14.4617 15.579L22.6363 15.5777Z" fill="#0CAF60"/>
</g>
</svg>
