<svg width="28" height="29" viewBox="0 0 28 29" fill="none" xmlns="http://www.w3.org/2000/svg">
<g id="Frame">
<path id="Vector" d="M20.9639 26.0002H7.0377C5.97539 26.0002 5.11133 25.1358 5.11133 24.0735V13.9728C5.11133 12.9107 5.97539 12.0464 7.0377 12.0464H20.9636C22.0259 12.0464 22.89 12.9107 22.89 13.9728V24.0733C22.89 25.1358 22.0262 26.0002 20.9639 26.0002ZM7.11152 24.0003H20.89V14.0466H7.11152V24.0003Z" fill="white"/>
<path id="Vector_2" d="M11.9296 20.0229H16.0706C16.6229 20.0229 17.0705 19.575 17.0705 19.0229C17.0705 18.4708 16.6229 18.0229 16.0706 18.0229H11.9296C11.3776 18.0229 10.9297 18.4706 10.9297 19.0229C10.9297 19.575 11.3773 20.0229 11.9296 20.0229Z" fill="#0CAF60"/>
<path id="Vector_3" d="M8.98043 14.0466C8.42809 14.0466 7.98047 13.5987 7.98047 13.0466V9.02055C7.98047 5.70074 10.6812 3 14.001 3C15.6096 3 17.1223 3.62699 18.2609 4.76559C19.3962 5.90035 20.0216 7.41164 20.0216 9.02055C20.0216 9.57289 19.5737 10.0205 19.0216 10.0205C18.4693 10.0205 18.0216 9.57262 18.0216 9.02055C18.0216 7.94594 17.6044 6.93695 16.8467 6.18008C16.086 5.41883 15.0754 4.99992 14.0013 4.99992C11.7845 4.99992 9.98066 6.80352 9.98066 9.02055V13.0464C9.98039 13.5987 9.53277 14.0466 8.98043 14.0466Z" fill="white"/>
</g>
</svg>
