<svg width="28" height="29" viewBox="0 0 28 29" fill="none" xmlns="http://www.w3.org/2000/svg">
<g id="Frame">
<path id="Vector (Stroke)" fill-rule="evenodd" clip-rule="evenodd" d="M22.0689 8.27659C22.0638 8.27359 22.0433 8.2618 22.0036 8.24855C21.9405 8.22751 21.8718 8.21752 21.8192 8.21752H21.1029C20.1281 8.21752 19.0789 8.15356 18.0547 7.93405L17.9091 7.90286L17.7698 7.85061C16.6534 7.432 15.5785 6.86338 14.5664 6.07171C14.4232 5.96483 14.3084 5.88567 14.1836 5.80186C14.0454 5.74551 13.8828 5.74017 13.7399 5.78586C12.6494 6.82902 11.3757 7.47263 10.0687 7.88533L9.96456 7.91822L9.85744 7.93965C8.79415 8.15232 7.75921 8.21752 6.77651 8.21752H6.12784L6.03685 8.20741C6.03542 8.2078 6.03378 8.20829 6.03191 8.2089C6.01492 8.21441 5.98602 8.22776 5.95281 8.25682L5.89572 8.30678L5.86406 8.33052V11.3983C5.86406 16.8916 7.92714 19.7609 9.82838 21.3045C10.8149 22.1055 11.8165 22.5952 12.5922 22.8864C13.2217 23.1227 13.6797 23.2197 13.8211 23.2466C13.8984 23.2543 13.9641 23.2645 14.015 23.2734C14.0349 23.2684 14.0556 23.2631 14.0771 23.2577C14.8022 23.0744 16.438 22.6609 18.1534 21.2778C20.0619 19.7391 22.1348 16.8853 22.1348 11.3983V8.33054L22.1113 8.31294L22.0689 8.27659ZM13.5816 25.2472C13.1637 25.1875 3.85156 23.5757 3.85156 11.3983V8.29428C3.85156 7.69737 4.15002 7.10041 4.62757 6.74226C5.10512 6.3244 5.70205 6.14533 6.2393 6.20502H6.77651C7.67193 6.20502 8.56731 6.14533 9.46272 5.96623C10.5969 5.60809 11.6117 5.07085 12.4474 4.23515C12.4772 4.2053 12.522 4.17545 12.5668 4.1456C12.6115 4.11575 12.6563 4.0859 12.6862 4.05605C13.4622 3.63822 14.4173 3.63822 15.1933 4.05605C15.3721 4.17532 15.5517 4.29506 15.7902 4.47391C16.6259 5.13054 17.5213 5.60809 18.4764 5.96623C19.3121 6.14533 20.2075 6.20502 21.1029 6.20502H21.8192C22.3564 6.20502 22.9534 6.38409 23.3712 6.74226C23.8488 7.10041 24.1473 7.69737 24.1473 8.29432V11.3983C24.1473 22.9554 15.706 24.9421 14.5398 25.2165C14.4771 25.2313 14.4355 25.2411 14.4173 25.2472C14.2382 25.3069 14.1188 25.3069 13.9994 25.3069C13.9008 25.3069 13.8203 25.2888 13.748 25.2725C13.6889 25.2592 13.6352 25.2472 13.5816 25.2472Z" fill="white"/>
<path id="Union" fill-rule="evenodd" clip-rule="evenodd" d="M14.8521 14.8203C15.7531 14.4768 16.3932 13.6045 16.3932 12.5828C16.3932 11.2607 15.3214 10.189 13.9993 10.189C12.6772 10.189 11.6055 11.2607 11.6055 12.5828C11.6055 13.6046 12.2456 14.4768 13.1467 14.8204V18.6484C13.1467 19.1193 13.5285 19.501 13.9994 19.501C14.4703 19.501 14.8521 19.1193 14.8521 18.6484V14.8203Z" fill="#0CAF60"/>
</g>
</svg>
