<svg width="28" height="29" viewBox="0 0 28 29" fill="none" xmlns="http://www.w3.org/2000/svg">
<g id="Frame">
<path id="Vector" d="M4.56207 22.1153L3.93198 22.7454L4.56207 22.1153C4.18442 21.7377 3.97227 21.2255 3.97227 20.6914V8.30826C3.97227 7.77418 4.18443 7.26198 4.56207 6.88434C4.93972 6.50669 5.45192 6.29453 5.98599 6.29453H22.0118C22.5459 6.29453 23.0581 6.50669 23.4357 6.88434C23.8134 7.26199 24.0256 7.77418 24.0256 8.30826V20.6914C24.0256 21.2255 23.8134 21.7377 23.4357 22.1153C23.0581 22.493 22.5459 22.7051 22.0118 22.7051H5.98599C5.45192 22.7051 4.93972 22.493 4.56207 22.1153Z" stroke="white" stroke-width="1.8"/>
<path id="Union" fill-rule="evenodd" clip-rule="evenodd" d="M8.12678 10.7793C8.30374 10.6437 8.52055 10.5703 8.74352 10.5705L8.7705 10.5503C8.94771 10.5528 9.12154 10.5991 9.27646 10.6852L13.9708 13.4291L18.7207 10.6852C18.8856 10.6018 19.0691 10.5623 19.2537 10.5706L19.2267 10.5503C19.4497 10.5501 19.6665 10.6235 19.8434 10.7591C20.0204 10.8948 20.1476 11.085 20.2053 11.3004C20.263 11.5158 20.2479 11.7442 20.1625 11.9501C20.077 12.1561 19.9259 12.328 19.7327 12.4392L14.7062 15.3428C14.6777 15.3707 14.6474 15.3969 14.6155 15.4213C14.4385 15.557 14.2217 15.6304 13.9988 15.6301C13.821 15.6316 13.6462 15.585 13.4928 15.4952L8.23756 12.4594C8.04432 12.3482 7.89323 12.1763 7.80776 11.9703C7.7223 11.7644 7.70724 11.536 7.76493 11.3206C7.82262 11.1053 7.94982 10.915 8.12678 10.7793Z" fill="#0CAF60"/>
</g>
</svg>
