<svg width="28" height="29" viewBox="0 0 28 29" fill="none" xmlns="http://www.w3.org/2000/svg">
<g id="Frame">
<path id="Rectangle 8749" d="M9.57422 3.33496H18.4277V5.25452C18.4277 6.08294 17.7562 6.75452 16.9277 6.75452H11.0742C10.2458 6.75452 9.57422 6.08294 9.57422 5.25452V3.33496Z" fill="#0CAF60"/>
<path id="Rectangle 8748" d="M7.28125 3.5249H20.7179C21.8225 3.5249 22.7179 4.42033 22.7179 5.5249V7.61369V22.3289V23.4746C22.7179 24.5792 21.8225 25.4746 20.7179 25.4746H7.28125C6.17668 25.4746 5.28125 24.5792 5.28125 23.4746V5.5249C5.28125 4.42033 6.17668 3.5249 7.28125 3.5249Z" stroke="white" stroke-width="2" stroke-linecap="round"/>
<path id="Rectangle 8750" d="M10.1816 21.7361C10.1816 21.1715 10.6393 20.7139 11.2039 20.7139H16.7981C17.3627 20.7139 17.8203 21.1715 17.8203 21.7361C17.8203 22.3006 17.3627 22.7583 16.7981 22.7583H11.2039C10.6393 22.7583 10.1816 22.3006 10.1816 21.7361Z" fill="#0CAF60"/>
</g>
</svg>
