<svg width="28" height="29" viewBox="0 0 28 29" fill="none" xmlns="http://www.w3.org/2000/svg">
<g id="Frame">
<path id="Union" fill-rule="evenodd" clip-rule="evenodd" d="M11.521 5.43457C8.37292 5.43457 5.82004 7.98746 5.82004 11.1356C5.82004 12.8824 6.61837 14.5153 7.97484 15.5895C5.1702 16.7734 3.06766 19.3326 2.55359 22.4238C2.54026 22.4653 2.53547 22.5019 2.53322 22.5244C2.53006 22.556 2.52985 22.5855 2.52984 22.6011C2.51162 23.1351 2.95353 23.5651 3.47338 23.5651H3.53267C4.03178 23.5651 4.38924 23.1815 4.47086 22.753L4.47194 22.7467C5.04021 19.3796 7.96726 16.8217 11.5062 16.8217C15.0451 16.8217 17.9722 19.3796 18.5404 22.7467L18.5411 22.7505C18.6233 23.2022 18.9863 23.5651 19.4797 23.5651H19.539C19.5696 23.5651 19.5958 23.5615 19.6113 23.5591C19.6274 23.5565 19.643 23.5534 19.6509 23.5518L19.6585 23.5503H19.6681L19.6931 23.5461C20.2123 23.4596 20.5655 22.9789 20.4786 22.4538C19.9732 19.3495 17.8793 16.7767 15.0535 15.589C16.6806 14.3011 17.5006 12.2118 17.1285 10.134C16.7047 7.67281 14.6539 5.74823 12.1782 5.46618L12.1717 5.46545L12.1603 5.46463C11.9561 5.45005 11.7395 5.43457 11.521 5.43457ZM7.78122 11.1356C7.78122 9.0675 9.46632 7.39575 11.521 7.39575C13.5757 7.39575 15.2608 9.0675 15.2608 11.1356C15.2608 13.2043 13.5898 14.8754 11.521 14.8754C9.45223 14.8754 7.78122 13.2043 7.78122 11.1356Z" fill="white"/>
<path id="Union_2" fill-rule="evenodd" clip-rule="evenodd" d="M18.524 6.11953C18.0491 6.05169 17.5856 6.38823 17.5385 6.88275L17.5371 6.89723V6.98589C17.5371 7.42304 17.8591 7.78442 18.2847 7.85162L18.2899 7.85235C19.8269 8.06807 20.9607 9.38996 20.9607 10.9282C20.9607 12.4669 19.8407 13.7752 18.3165 14.0045C17.8751 14.0707 17.5371 14.4473 17.5371 14.9001C17.5371 15.3614 17.8863 15.7665 18.3464 15.8126L18.3517 15.813C21.0857 16.0385 23.2846 18.0959 23.7362 20.7448C23.8043 21.1694 24.1651 21.4904 24.6016 21.4904C25.0922 21.4904 25.471 21.0761 25.471 20.6061L25.4711 20.6012C25.4713 20.5775 25.472 20.5113 25.4468 20.4357C25.0067 17.8617 23.2697 15.7176 20.9252 14.7011C22.0473 13.7872 22.6996 12.4071 22.6996 10.943C22.6996 8.52366 20.9277 6.46744 18.524 6.11953Z" fill="#0CAF60"/>
</g>
</svg>
