<svg width="28" height="29" viewBox="0 0 28 29" fill="none" xmlns="http://www.w3.org/2000/svg">
<g id="Frame">
<path id="Vector" d="M8.17408 8.6748H15.6637C15.8844 8.6748 16.096 8.76246 16.252 8.91848C16.4081 9.07451 16.4957 9.28613 16.4957 9.50678C16.4957 9.72743 16.4081 9.93905 16.252 10.0951C16.096 10.2511 15.8844 10.3388 15.6637 10.3388H8.17408C7.95343 10.3388 7.74181 10.2511 7.58579 10.0951C7.42976 9.93905 7.34211 9.72743 7.34211 9.50678C7.34211 9.28613 7.42976 9.07451 7.58579 8.91848C7.74181 8.76246 7.95343 8.6748 8.17408 8.6748ZM8.17408 12.8353H12.1267C12.3475 12.8353 12.5592 12.923 12.7153 13.0791C12.8713 13.2352 12.959 13.4469 12.959 13.6676C12.959 13.8883 12.8713 14.1 12.7153 14.2561C12.5592 14.4122 12.3475 14.4999 12.1267 14.4999H8.17408C7.95335 14.4999 7.74165 14.4122 7.58557 14.2561C7.42948 14.1 7.3418 13.8883 7.3418 13.6676C7.3418 13.4469 7.42948 13.2352 7.58557 13.0791C7.74165 12.923 7.95335 12.8353 8.17408 12.8353Z" fill="white"/>
<path id="Vector_2" d="M21.4895 4.51367C22.3722 4.51367 23.2189 4.86435 23.8431 5.48857C24.4673 6.11279 24.818 6.95942 24.818 7.8422V12.0033C24.818 12.224 24.7303 12.4356 24.5743 12.5916C24.4183 12.7476 24.2067 12.8353 23.986 12.8353C23.7653 12.8353 23.5537 12.7476 23.3977 12.5916C23.2417 12.4356 23.154 12.224 23.154 12.0033V7.8422C23.1539 7.40083 22.9784 6.9776 22.6663 6.66557C22.3541 6.35353 21.9308 6.17825 21.4895 6.17825H6.51016C6.0688 6.17825 5.6455 6.35353 5.33335 6.66557C5.0212 6.9776 4.84576 7.40083 4.84559 7.8422V21.1575C4.84576 21.5989 5.0212 22.0221 5.33335 22.3342C5.6455 22.6462 6.0688 22.8215 6.51016 22.8215H10.6713C10.892 22.8215 11.1037 22.9092 11.2598 23.0653C11.4159 23.2213 11.5036 23.433 11.5036 23.6538C11.5036 23.8745 11.4159 24.0862 11.2598 24.2423C11.1037 24.3984 10.892 24.4861 10.6713 24.4861H6.51016C5.62738 24.4861 4.78076 24.1354 4.15654 23.5112C3.53232 22.8869 3.18164 22.0403 3.18164 21.1575V7.8422C3.18164 6.95942 3.53232 6.11279 4.15654 5.48857C4.78076 4.86435 5.62738 4.51367 6.51016 4.51367H21.4895Z" fill="white"/>
<path id="Vector_3" d="M21.4896 16.1646C22.3724 16.1646 23.219 16.5152 23.8432 17.1395C24.4674 17.7637 24.8181 18.6103 24.8181 19.4931V21.1576C24.8181 22.0404 24.4674 22.887 23.8432 23.5113C23.219 24.1355 22.3724 24.4862 21.4896 24.4862H16.4965C15.6137 24.4862 14.7671 24.1355 14.1429 23.5113C13.5187 22.887 13.168 22.0404 13.168 21.1576V19.4931C13.168 18.6103 13.5187 17.7637 14.1429 17.1395C14.7671 16.5152 15.6137 16.1646 16.4965 16.1646H21.4896ZM21.4896 17.8285H16.4965C16.055 17.8285 15.6316 18.0039 15.3195 18.316C15.0073 18.6282 14.8319 19.0516 14.8319 19.4931V21.1576C14.8321 21.599 15.0075 22.0222 15.3197 22.3343C15.6318 22.6463 16.0551 22.8216 16.4965 22.8216H21.4896C21.931 22.8216 22.3542 22.6463 22.6664 22.3343C22.9785 22.0222 23.154 21.599 23.1542 21.1576V19.4931C23.1542 19.0516 22.9788 18.6282 22.6666 18.316C22.3545 18.0039 21.9311 17.8285 21.4896 17.8285Z" fill="#0CAF60"/>
<path id="Vector_4" d="M18.1601 19.4932H19.8247C20.3793 19.4932 20.6566 19.7705 20.6566 20.3251V20.3258C20.6566 20.8804 20.3793 21.1577 19.8247 21.1577H18.1601C17.6055 21.1577 17.3281 20.8804 17.3281 20.3258V20.3251C17.3281 19.7705 17.6055 19.4932 18.1601 19.4932Z" fill="#0CAF60"/>
<path id="Vector_5" d="M18.9926 12.0034C19.8754 12.0034 20.722 12.3541 21.3462 12.9783C21.9704 13.6025 22.3211 14.4492 22.3211 15.3319V16.9965H20.6572V15.3319C20.6572 14.8905 20.4818 14.4671 20.1696 14.1549C19.8574 13.8427 19.4341 13.6674 18.9926 13.6674C18.5511 13.6674 18.1277 13.8427 17.8156 14.1549C17.5034 14.4671 17.328 14.8905 17.328 15.3319V16.9965H15.6641V15.3319C15.6641 14.4492 16.0147 13.6025 16.639 12.9783C17.2632 12.3541 18.1098 12.0034 18.9926 12.0034Z" fill="#0CAF60"/>
</g>
</svg>
