<svg width="28" height="29" viewBox="0 0 28 29" fill="none" xmlns="http://www.w3.org/2000/svg">
<g id="Frame">
<path id="Vector" d="M18.1172 11.0276H9.95227C9.36836 11.0276 8.89062 10.5498 8.89062 9.96594C8.89062 9.38204 9.36836 8.9043 9.95227 8.9043H18.1172C18.7011 8.9043 19.1788 9.38204 19.1788 9.96594C19.1788 10.5498 18.7011 11.0276 18.1172 11.0276ZM15.9939 15.2742H9.95227C9.36836 15.2742 8.89062 14.7964 8.89062 14.2125C8.89062 13.6286 9.36836 13.1509 9.95227 13.1509H15.9939C16.5778 13.1509 17.0555 13.6286 17.0555 14.2125C17.0555 14.7964 16.5778 15.2742 15.9939 15.2742Z" fill="#0CAF60"/>
<rect id="Rectangle 8756" x="5.57383" y="4.78379" width="16.851" height="19.4328" rx="2.1" stroke="white" stroke-width="1.8"/>
</g>
</svg>
