<svg width="28" height="29" viewBox="0 0 28 29" fill="none" xmlns="http://www.w3.org/2000/svg">
<g id="Frame">
<path id="Vector" d="M20.6104 3.71485C21.3893 3.71485 22.1221 4.02042 22.6727 4.57105C23.2205 5.11753 23.5291 5.85902 23.5307 6.63278V12.2709C23.525 12.4808 23.4376 12.6801 23.2872 12.8265C23.1367 12.9729 22.9351 13.0548 22.7251 13.0548C22.5152 13.0548 22.3136 12.9729 22.1631 12.8265C22.0127 12.6801 21.9253 12.4808 21.9196 12.2709V6.63278C21.9175 6.28573 21.7786 5.9535 21.533 5.70826C21.2875 5.46302 20.955 5.32458 20.608 5.32301H13.8854V10.6622C13.8854 10.9396 13.7422 11.1972 13.5091 11.3446C13.2754 11.492 12.9806 11.507 12.732 11.3884L10.8374 10.4776L8.77747 11.6304C8.65488 11.6989 8.51658 11.7344 8.37614 11.7334C8.23569 11.7323 8.09794 11.6948 7.97639 11.6244C7.85508 11.5531 7.75451 11.4514 7.68462 11.3293C7.61473 11.2072 7.57796 11.0689 7.57794 10.9282V5.32361H6.12497C5.77781 5.32566 5.44549 5.46464 5.20023 5.71034C4.95498 5.95605 4.81661 6.28862 4.81519 6.63578V22.2788C4.8174 22.6258 4.95645 22.958 5.20214 23.2031C5.44782 23.4483 5.78031 23.5865 6.12736 23.588H9.57616C10.0207 23.588 10.3814 23.9445 10.3814 24.389C10.3814 24.8336 10.0207 25.1943 9.57616 25.1943H6.12497C5.7418 25.1945 5.36238 25.119 5.00846 24.9722C4.65455 24.8254 4.33312 24.6101 4.06264 24.3387C3.79133 24.0687 3.57606 23.7477 3.42923 23.3941C3.28239 23.0406 3.20688 22.6616 3.20703 22.2788V6.63278C3.20943 5.85387 3.51261 5.12049 4.06324 4.57046C4.33334 4.29871 4.6546 4.08319 5.00848 3.93633C5.36236 3.78947 5.74183 3.7142 6.12497 3.71485H20.6104ZM11.1562 8.8473L12.2742 9.38415V5.32361H9.1885V9.55791L10.4144 8.87126C10.5268 8.80739 10.6531 8.77183 10.7823 8.76766C10.9115 8.76348 11.0398 8.79081 11.1562 8.8473ZM7.95661 16.4447H11.9698C12.1836 16.4447 12.3885 16.3598 12.5397 16.2087C12.6908 16.0575 12.7757 15.8526 12.7757 15.6388C12.7757 15.4251 12.6908 15.2201 12.5397 15.069C12.3885 14.9179 12.1836 14.833 11.9698 14.833H7.95661C7.74288 14.833 7.5379 14.9179 7.38677 15.069C7.23564 15.2201 7.15074 15.4251 7.15074 15.6388C7.15074 15.8526 7.23564 16.0575 7.38677 16.2087C7.5379 16.3598 7.74288 16.4447 7.95661 16.4447ZM7.95661 20.247H9.56477C9.77297 20.239 9.96997 20.1506 10.1144 20.0005C10.2589 19.8503 10.3396 19.6501 10.3396 19.4417C10.3396 19.2334 10.2589 19.0331 10.1144 18.883C9.96997 18.7328 9.77297 18.6445 9.56477 18.6365H7.95661C7.74842 18.6445 7.55142 18.7328 7.40696 18.883C7.2625 19.0331 7.18181 19.2334 7.18181 19.4417C7.18181 19.6501 7.2625 19.8503 7.40696 20.0005C7.55142 20.1506 7.74842 20.239 7.95661 20.247Z" fill="white"/>
<path id="Vector_2" d="M20.4828 17.2254C21.3278 17.5673 22.0951 18.0764 22.7386 18.7221C23.3695 19.3501 23.8696 20.0967 24.2103 20.919C24.551 21.7413 24.7255 22.6229 24.7237 23.513C24.7237 23.8545 24.6907 24.2128 24.6266 24.6095C24.5957 24.7979 24.4988 24.9693 24.3533 25.0929C24.2078 25.2166 24.0231 25.2846 23.8321 25.2847H12.0693C11.6751 25.2847 11.3383 24.9989 11.2748 24.6089C11.2089 24.2134 11.1778 23.8539 11.1778 23.5106C11.1754 22.621 11.3494 21.7397 11.6898 20.9177C12.0302 20.0958 12.5303 19.3495 13.161 18.7221C13.8044 18.0765 14.5714 17.5674 15.4163 17.2254C14.8094 16.5821 14.4718 15.731 14.4726 14.8467C14.4726 12.9294 16.0328 11.3691 17.9495 11.3691C19.8669 11.3691 21.4271 12.9294 21.4271 14.8461C21.4279 15.7307 21.09 16.5821 20.4828 17.2254ZM19.8249 18.6999C18.59 18.2187 17.2173 18.2305 15.9909 18.7329L17.9693 20.4387L19.8249 18.6999ZM19.8159 14.8461C19.8159 13.8167 18.9771 12.9779 17.9477 12.9779C17.4525 12.9788 16.9778 13.176 16.6275 13.5261C16.2773 13.8762 16.08 14.3509 16.0789 14.8461C16.0789 15.8767 16.9178 16.7149 17.9477 16.7149C18.9771 16.7149 19.8159 15.8761 19.8159 14.8461ZM12.7841 23.5112C12.7841 23.5645 12.7841 23.6191 12.7865 23.6742H23.1083C23.1107 23.6191 23.1125 23.5645 23.1125 23.5136C23.1129 22.7595 22.9477 22.0145 22.6286 21.3312C22.3095 20.6479 21.8444 20.043 21.2659 19.5591L18.5445 22.1092C18.3957 22.2493 18.1989 22.3271 17.9945 22.3267C17.8014 22.3264 17.6148 22.2571 17.4684 22.1313L14.5565 19.622C14 20.1056 13.5539 20.7031 13.2483 21.3739C12.9426 22.0448 12.7839 22.774 12.7841 23.5112Z" fill="#0CAF60"/>
</g>
</svg>
