<svg width="20" height="20" viewBox="0 0 20 20" fill="none" xmlns="http://www.w3.org/2000/svg">
<g id="Frame">
<path id="Vector" d="M1.35059 6.52918H2.94272C2.98177 4.92476 3.58139 3.59941 4.84712 2.60822C5.84412 1.82711 6.99796 1.58635 8.24959 1.68298V3.62531C8.20595 3.62531 8.16498 3.6236 8.12407 3.62531C7.79083 3.63976 7.45499 3.63275 7.12549 3.67522C6.61226 3.74137 6.1679 3.97701 5.78166 4.31777C5.29339 4.74849 4.98714 5.28793 4.85285 5.92257C4.81204 6.11559 4.80049 6.31457 4.77421 6.5214H6.21455C5.39471 7.47978 4.59063 8.41966 3.77941 9.36761C2.97022 8.42185 2.16731 7.48343 1.35059 6.52915V6.52918ZM9.49132 18.1615C9.32319 18.289 9.12895 18.3373 8.92232 18.3374C6.87242 18.3381 4.82252 18.3394 2.77272 18.337C2.31282 18.3363 1.98674 18.0888 1.86874 17.6613C1.84521 17.5761 1.8367 17.4838 1.8367 17.3952C1.83491 15.5735 1.83491 13.7515 1.83545 11.9297C1.8357 11.4696 2.08243 11.1352 2.51333 11.0175C2.60785 10.9918 2.71004 10.9854 2.80841 10.9851C3.82057 10.9831 4.83269 10.9834 5.84468 10.9834C6.8599 10.9834 7.87528 10.984 8.89068 10.9834C9.11791 10.9834 9.32943 11.0316 9.51167 11.1769C9.71911 11.3425 9.83017 11.558 9.85136 11.8213C9.85421 11.8561 9.85477 11.8916 9.85477 11.9271C9.85498 13.7487 9.85452 15.5705 9.85564 17.3924C9.85589 17.7079 9.7459 17.9684 9.49127 18.1615L9.49132 18.1615ZM10.2408 8.83312C9.99454 8.64798 9.87593 8.39605 9.87527 8.09353C9.87328 6.25242 9.87254 4.41142 9.87593 2.57012C9.87659 2.12645 10.1383 1.79545 10.5632 1.68525C10.6519 1.66218 10.7474 1.65678 10.8398 1.65652C12.8705 1.65492 14.901 1.65558 16.9317 1.65527C17.3208 1.65527 17.6287 1.8032 17.7994 2.16359C17.8573 2.28729 17.8902 2.43466 17.8908 2.57136C17.8966 4.41237 17.8958 6.25337 17.8937 8.09444C17.8932 8.53347 17.6394 8.8621 17.2164 8.97709C17.1219 9.00271 17.0196 9.00847 16.9208 9.00847C15.909 9.01074 14.8968 9.00982 13.8846 9.00982H10.839C10.6219 9.00962 10.418 8.96618 10.2408 8.8332L10.2408 8.83312ZM17.2284 13.4795C17.1819 15.1484 16.5412 16.5078 15.1895 17.4966C14.2181 18.2073 13.1095 18.4147 11.9207 18.3241V16.3797C12.1099 16.3797 12.2957 16.3867 12.4808 16.3781C12.6918 16.368 12.9065 16.3643 13.1124 16.3225C13.8922 16.1639 14.4899 15.7314 14.9185 15.0668C15.2255 14.5916 15.3729 14.0654 15.3824 13.4877H13.9525C14.7754 12.5262 15.5794 11.5865 16.3907 10.6384C17.2013 11.5856 18.0041 12.5241 18.822 13.4795L17.2284 13.4794L17.2284 13.4795Z" fill="white"/>
</g>
</svg>
