<svg width="20" height="20" viewBox="0 0 20 20" fill="none" xmlns="http://www.w3.org/2000/svg">
<path id="Vector" d="M7.10778 6.08719L9.45768 1.12233C9.45775 1.12218 9.45782 1.12204 9.45789 1.12189C9.57501 0.876002 9.7895 0.75 10.0144 0.75C10.1591 0.75 10.3174 0.81226 10.4663 0.971112C10.5085 1.02056 10.544 1.07466 10.5655 1.122L10.5654 1.12204L10.5703 1.13256L12.6358 5.50129C12.648 5.57468 12.6711 5.64607 12.7046 5.71304C12.9047 6.1139 13.2816 6.39297 13.7152 6.46959L13.7152 6.4696L13.7184 6.47016L17.0679 7.04679L17.0822 7.0491L18.7015 7.29586C18.7019 7.29591 18.7022 7.29596 18.7025 7.29601C18.935 7.33261 19.1348 7.49744 19.2179 7.75627C19.3041 8.03621 19.2293 8.31023 19.0671 8.47929C19.0665 8.47988 19.0659 8.48047 19.0654 8.48105L15.2736 12.3366C15.1058 12.5072 15.0295 12.7476 15.0682 12.9838L15.9606 18.4273C16.0008 18.7003 15.8954 18.9568 15.6913 19.1174C15.5711 19.2082 15.4488 19.2439 15.3382 19.2439C15.2345 19.2439 15.1481 19.2205 15.0843 19.1829C15.0778 19.1791 15.0714 19.1754 15.0648 19.1719L10.3756 16.5947C10.1507 16.471 9.8781 16.471 9.65314 16.5947L4.96391 19.1719L4.96389 19.1718L4.95628 19.1761C4.75775 19.2882 4.52127 19.2723 4.34043 19.1315C4.33438 19.1268 4.32827 19.1222 4.32208 19.1177C4.12617 18.9745 4.01913 18.722 4.06617 18.4512L4.0662 18.4512L4.06735 18.4441L4.96054 12.9956C4.99925 12.7594 4.92295 12.519 4.75515 12.3483L0.959107 8.48842L0.959123 8.48841L0.955052 8.48433C0.778873 8.30792 0.704733 8.03391 0.788024 7.76584C0.869201 7.50457 1.06267 7.34549 1.30282 7.30776C1.30312 7.30772 1.30341 7.30767 1.30371 7.30762L6.54307 6.50774C6.7895 6.47012 7.00113 6.31251 7.10778 6.08719ZM12.6647 5.56232L12.6693 5.57182C12.6677 5.56866 12.6662 5.56549 12.6647 5.56232Z" stroke="#868686" stroke-width="1.5" stroke-linejoin="round"/>
</svg>
