<svg width="20" height="20" viewBox="0 0 20 20" fill="none" xmlns="http://www.w3.org/2000/svg">
<path id="Vector" d="M19.9295 7.53154C19.765 7.01374 19.3419 6.63717 18.8131 6.55479L17.1912 6.30766L13.8418 5.73103C13.642 5.69573 13.4657 5.56628 13.3717 5.37799V5.36622C13.3599 5.31915 13.3599 5.28384 13.3364 5.23677L11.2445 0.811994C11.1857 0.682546 11.1035 0.564865 11.0212 0.470721C10.7509 0.17652 10.3983 0 10.0105 0C9.48161 0 9.01151 0.305969 8.77646 0.800226L6.42597 5.76633L1.18437 6.56656C0.655514 6.64894 0.232426 7.01375 0.0678912 7.54331C-0.0966433 8.07287 0.0443862 8.63773 0.420465 9.01431L4.21651 12.8742L3.32332 18.3228C3.2293 18.8641 3.44085 19.4055 3.87569 19.7232C4.29878 20.0527 4.86289 20.088 5.32124 19.8291L10.0105 17.2519L14.6997 19.8291C14.8995 19.9468 15.1228 19.9939 15.3343 19.9939C15.6164 19.9939 15.8985 19.8997 16.1453 19.7114C16.5683 19.3819 16.7799 18.8524 16.6976 18.3111L15.8044 12.8625L19.6005 9.00254C19.9648 8.62597 20.0941 8.0611 19.9295 7.53154Z" fill="#FFC148"/>
</svg>
