<svg width="24" height="24" viewBox="0 0 24 24" fill="none" xmlns="http://www.w3.org/2000/svg">
<g id="Frame">
<path id="Vector" d="M4.48145 20.6255L4.47393 4.4668H6.98779V5.29389C6.98779 6.21957 7.73552 6.97314 8.65535 6.97314H15.3456C15.7893 6.97115 16.2141 6.79322 16.5267 6.4784C16.8393 6.16357 17.0143 5.73757 17.0132 5.29389V4.4668L19.5195 4.46011L19.5262 20.6188L4.48145 20.6255ZM15.3423 3.6397L15.3456 5.30225L8.65869 5.29389V3.6397L8.65535 3.63135L15.3423 3.6397ZM19.5154 2.7959H16.7793C16.4902 2.29881 15.9588 1.96045 15.3456 1.96045H8.65535C8.04213 1.96045 7.51162 2.29797 7.22172 2.7959H4.47393C4.03276 2.79634 3.60981 2.97185 3.29793 3.28388C2.98606 3.5959 2.81077 4.01895 2.81055 4.46011V20.6255C2.81055 21.5428 3.55744 22.2897 4.47476 22.2897H19.5262C19.9674 22.289 20.3903 22.1135 20.7023 21.8015C21.0142 21.4896 21.1898 21.0667 21.1904 20.6255V4.46011C21.1887 4.0174 21.0113 3.59348 20.6972 3.28145C20.3831 2.96942 19.9581 2.79479 19.5154 2.7959Z" fill="#fff"/>
<path id="Vector_2" d="M14.795 10.5734L10.8333 14.9044L9.21166 13.0873C9.06409 12.922 8.8569 12.8221 8.63567 12.8095C8.41444 12.797 8.1973 12.8729 8.032 13.0204C7.86671 13.168 7.7668 13.3752 7.75427 13.5964C7.74173 13.8176 7.8176 14.0348 7.96517 14.2001L10.2025 16.7064C10.2803 16.7936 10.3755 16.8634 10.482 16.9115C10.5885 16.9596 10.7039 16.9848 10.8207 16.9855H10.8257C11.0597 16.9855 11.2836 16.8869 11.4423 16.7139L16.0281 11.7012C16.1776 11.5377 16.2561 11.3215 16.2463 11.1001C16.2364 10.8787 16.139 10.6703 15.9755 10.5208C15.8119 10.3712 15.5957 10.2927 15.3743 10.3026C15.1529 10.3125 14.9445 10.4099 14.795 10.5734Z" fill="#fff"/>
</g>
</svg>
