<svg width="24" height="24" viewBox="0 0 24 24" fill="none" xmlns="http://www.w3.org/2000/svg">
<g id="Frame">
<path id="Vector" d="M18.511 9.82755H20.4666C21.1867 9.82755 21.7704 10.4113 21.7704 11.1313V18.3021C21.7704 19.0222 21.1867 19.6059 20.4666 19.6059H18.511V21.7791C18.511 22.379 18.0246 22.8653 17.4248 22.8653C16.8249 22.8653 16.3385 22.379 16.3385 21.7791V19.6059H14.3829C13.6628 19.6059 13.0791 19.0222 13.0791 18.3021V11.1313C13.0791 10.4113 13.6628 9.82755 14.3829 9.82755H16.3385V7.65432C16.3385 7.05443 16.8249 6.56812 17.4248 6.56812C18.0246 6.56812 18.511 7.05443 18.511 7.65432V9.82755ZM15.773 12C15.485 12 15.2515 12.2335 15.2515 12.5215V16.9103C15.2515 17.1983 15.485 17.4318 15.773 17.4318H19.0765C19.3645 17.4318 19.598 17.1983 19.598 16.9103V12.5215C19.598 12.2335 19.3645 12 19.0765 12H15.773Z" fill="#595F6C"/>
<path id="Vector_2" d="M7.64572 4.39421H9.60139C10.3214 4.39421 10.9052 4.97793 10.9052 5.69798V12.8687C10.9052 13.5888 10.3214 14.1725 9.60139 14.1725H7.64572V16.3458C7.64572 16.9457 7.15941 17.432 6.55952 17.432C5.95962 17.432 5.47331 16.9457 5.47331 16.3458V14.1725H3.51764C2.79759 14.1725 2.21387 13.5888 2.21387 12.8687V5.69798C2.21387 4.97793 2.79759 4.39421 3.51764 4.39421H5.47331V2.22097C5.47331 1.62108 5.95962 1.13477 6.55952 1.13477C7.15941 1.13477 7.64572 1.62108 7.64572 2.22097V4.39421ZM4.90779 6.56825C4.61977 6.56825 4.38628 6.80174 4.38628 7.08976V11.4786C4.38628 11.7666 4.61977 12.0001 4.90779 12.0001H8.21124C8.49926 12.0001 8.73275 11.7666 8.73275 11.4786V7.08976C8.73275 6.80174 8.49926 6.56825 8.21124 6.56825H4.90779Z" fill="white"/>
</g>
</svg>
